<?xml version="1.0" encoding="utf-8"?>
<!-- Generator: Adobe Illustrator 17.0.0, SVG Export Plug-In . SVG Version: 6.00 Build 0)  -->
<!DOCTYPE svg PUBLIC "-//W3C//DTD SVG 1.1//EN" "http://www.w3.org/Graphics/SVG/1.1/DTD/svg11.dtd">
<svg version="1.1" id="Layer_1" xmlns="http://www.w3.org/2000/svg" xmlns:xlink="http://www.w3.org/1999/xlink" x="0px" y="0px"
	 width="200px" height="200px" viewBox="0 0 200 200" enable-background="new 0 0 200 200" xml:space="preserve">
<g>
	<g>
		<path fill="#FFFFFF" d="M48.556,156.82c-0.043,2.412-0.786,4.396-2.27,6.064c-1.452,1.619-3.132,2.405-5.136,2.405
			c-2.012,0-3.684-0.789-5.113-2.414c-1.492-1.691-2.233-3.686-2.26-6.083v-12.928h-4.576v12.939c0.035,3.622,1.208,6.753,3.481,9.3
			c2.313,2.635,5.169,3.971,8.486,3.971c3.3,0,6.148-1.33,8.464-3.948c2.27-2.545,3.448-5.67,3.501-9.301v-12.961h-4.576V156.82z"/>
		<path fill="#FFFFFF" d="M86.196,145.121c-1.66-0.812-3.348-1.224-5.015-1.224h-8.743v25.969h4.641v-6.383h4.101
			c1.653,0,3.338-0.406,5.015-1.207c3.408-1.661,5.139-4.547,5.139-8.578S89.604,146.782,86.196,145.121z M77.079,148.522h4.101
			c1.007,0,1.959,0.232,2.916,0.71c1.728,0.866,2.534,2.285,2.534,4.467c0,2.184-0.809,3.596-2.559,4.452
			c-0.932,0.473-1.881,0.711-2.891,0.725h-4.101V148.522z"/>
		<polygon fill="#FFFFFF" points="127.957,160.81 108.857,141.823 108.857,169.866 113.498,169.866 113.498,152.954 
			132.598,171.635 132.598,143.897 127.957,143.897 		"/>
		<path fill="#FFFFFF" d="M165.662,145.121c-1.658-0.812-3.345-1.224-5.015-1.224h-8.745v25.969h4.641v-6.383h4.104
			c1.655,0,3.338-0.406,5.013-1.207c3.411-1.66,5.141-4.546,5.141-8.578C170.801,149.666,169.07,146.78,165.662,145.121z
			 M156.543,148.522h4.104c1.005,0,1.956,0.232,2.913,0.71c1.73,0.866,2.537,2.285,2.537,4.467c0,2.184-0.809,3.596-2.557,4.452
			c-0.937,0.473-1.886,0.711-2.893,0.725h-4.104V148.522z"/>
		<g>
			<g>
				<circle fill="#FFFFFF" cx="41.067" cy="186.029" r="3.03"/>
				<circle fill="#FFFFFF" cx="80.356" cy="186.029" r="3.03"/>
				<circle fill="#FFFFFF" cx="119.644" cy="186.029" r="3.03"/>
				<circle fill="#FFFFFF" cx="158.933" cy="186.029" r="3.03"/>
			</g>
		</g>
		<path fill="#FFFFFF" d="M133.379,15.948c-6.791,6.962-7.187,13.848-9.209,26.577c-2.022,12.729-5.383,9.763-13.31,11.084
			c-2.111,0.352-3.881,1.284-5.356,2.451V27.499c0-3.064,2.484-5.549,5.548-5.549h3.468c3.04,0,5.505-2.464,5.505-5.505
			s-2.465-5.505-5.505-5.505H85.479c-3.04,0-5.505,2.465-5.505,5.505s2.465,5.505,5.505,5.505h3.468
			c3.064,0,5.548,2.484,5.548,5.549V56.06c-1.475-1.167-3.245-2.099-5.356-2.451c-7.927-1.321-11.288,1.645-13.31-11.084
			c-2.021-12.729-2.417-19.615-9.209-26.577c-10.941-11.215-23.452-0.661-11.23,6.606c12.222,7.267,6.772,28.902,15.194,37.324
			c8.423,8.423,23.911-1.982,23.911,14.864v9.095c0,3.064-2.484,5.549-5.548,5.549h-3.468c-3.04,0-5.505,2.464-5.505,5.505
			s2.465,5.505,5.505,5.505h29.042c3.04,0,5.505-2.464,5.505-5.505s-2.465-5.505-5.505-5.505h-3.468
			c-3.064,0-5.548-2.484-5.548-5.549v-9.095c0-16.845,15.488-6.441,23.911-14.864c8.423-8.423,2.973-30.058,15.194-37.324
			C156.831,15.287,144.32,4.732,133.379,15.948z"/>
		<g>
			<g>
				<path fill="#FFFFFF" d="M73.575,120.859c0-1.521,1.233-2.754,2.754-2.754h47.342c1.521,0,2.754,1.234,2.754,2.754
					c0,1.521-1.233,2.754-2.754,2.754H76.329C74.808,123.613,73.575,122.379,73.575,120.859z"/>
			</g>
		</g>
	</g>
</g>
</svg>
