<?xml version="1.0" encoding="utf-8"?>
<!-- Generator: Adobe Illustrator 17.0.0, SVG Export Plug-In . SVG Version: 6.00 Build 0)  -->
<!DOCTYPE svg PUBLIC "-//W3C//DTD SVG 1.1//EN" "http://www.w3.org/Graphics/SVG/1.1/DTD/svg11.dtd">
<svg version="1.1" id="Layer_1" xmlns="http://www.w3.org/2000/svg" xmlns:xlink="http://www.w3.org/1999/xlink" x="0px" y="0px"
	 width="894.076px" height="180.366px" viewBox="0 0 894.076 180.366" enable-background="new 0 0 894.076 180.366"
	 xml:space="preserve">
<rect x="4089.763" y="1047.898" fill="#4C1B1B" width="1000" height="1000"/>
<rect x="89.763" y="1047.898" fill="#4C1B1B" width="1000" height="1000"/>
<g>
	<g>
		<path fill="#4C1B1B" d="M-361.84,72.801c-0.086,4.864-1.585,8.865-4.578,12.227c-2.927,3.264-6.315,4.849-10.356,4.849
			c-4.056,0-7.429-1.59-10.31-4.866c-3.008-3.411-4.502-7.431-4.558-12.265V46.678h-9.227v26.09
			c0.071,7.302,2.436,13.617,7.019,18.752c4.664,5.312,10.422,8.006,17.111,8.006c6.654,0,12.397-2.681,17.066-7.961
			c4.578-5.132,6.953-11.432,7.059-18.754V46.678h-9.227V72.801z"/>
		<path fill="#4C1B1B" d="M-285.946,49.213c-3.347-1.638-6.75-2.469-10.113-2.469h-17.628v52.362h9.358v-12.87h8.27
			c3.332,0,6.73-0.818,10.113-2.433c6.872-3.35,10.361-9.168,10.361-17.296S-279.074,52.56-285.946,49.213z M-304.328,56.069h8.27
			c2.031,0,3.95,0.468,5.879,1.431c3.484,1.747,5.11,4.608,5.11,9.006c0,4.403-1.631,7.252-5.16,8.976
			c-1.879,0.955-3.793,1.433-5.829,1.461h-8.27V56.069z"/>
		<polygon fill="#4C1B1B" points="-201.742,80.845 -240.253,42.561 -240.253,99.106 -230.895,99.106 -230.895,65.005 
			-192.383,102.673 -192.383,46.744 -201.742,46.744 		"/>
		<path fill="#4C1B1B" d="M-125.716,49.213c-3.342-1.638-6.745-2.469-10.113-2.469h-17.633v52.362h9.358v-12.87h8.275
			c3.337,0,6.73-0.818,10.108-2.433c6.877-3.347,10.366-9.166,10.366-17.296S-118.844,52.558-125.716,49.213z M-144.103,56.069
			h8.275c2.026,0,3.945,0.468,5.874,1.431c3.489,1.747,5.115,4.608,5.115,9.006c0,4.403-1.631,7.252-5.155,8.976
			c-1.889,0.955-3.803,1.433-5.834,1.461h-8.275V56.069z"/>
		<g>
			<g>
				<circle fill="#F6E497" cx="-376.939" cy="131.695" r="6.11"/>
				<circle fill="#F6E497" cx="-297.721" cy="131.695" r="6.11"/>
				<circle fill="#F6E497" cx="-218.502" cy="131.695" r="6.11"/>
				<circle fill="#F6E497" cx="-139.284" cy="131.695" r="6.11"/>
			</g>
		</g>
		<path fill="#4C1B1B" d="M-537.718,10.095c-13.694,14.037-14.492,27.921-18.568,53.588c-4.076,25.666-10.853,19.685-26.837,22.349
			c-4.256,0.709-7.825,2.588-10.799,4.942V33.386c0-6.179,5.009-11.188,11.187-11.188h6.993c6.129,0,11.099-4.969,11.099-11.099
			S-569.612,0-575.742,0H-634.3c-6.129,0-11.099,4.969-11.099,11.099s4.969,11.099,11.099,11.099h6.993
			c6.179,0,11.187,5.009,11.187,11.188v57.588c-2.974-2.354-6.543-4.233-10.799-4.942c-15.984-2.664-22.761,3.317-26.837-22.349
			c-4.076-25.666-4.874-39.551-18.568-53.588c-22.06-22.613-47.286-1.332-22.644,13.32c24.643,14.652,13.654,58.275,30.636,75.258
			c16.983,16.983,48.212-3.996,48.212,29.97v18.338c0,6.179-5.009,11.188-11.187,11.188h-6.993c-6.129,0-11.099,4.969-11.099,11.099
			s4.969,11.099,11.099,11.099h58.558c6.129,0,11.099-4.969,11.099-11.099s-4.969-11.099-11.099-11.099h-6.993
			c-6.179,0-11.187-5.009-11.187-11.188v-18.338c0-33.966,31.229-12.987,48.212-29.97c16.982-16.983,5.994-60.606,30.636-75.258
			C-490.432,8.763-515.658-12.518-537.718,10.095z"/>
		<g>
			<g>
				<path fill="#BD8D46" d="M-459.974,143.571c-3.066,0-5.553-2.486-5.553-5.553V42.562c0-3.068,2.487-5.553,5.553-5.553
					c3.066,0,5.553,2.486,5.553,5.553v95.456C-454.42,141.085-456.908,143.571-459.974,143.571z"/>
			</g>
		</g>
	</g>
</g>
<g>
	<g>
		<path fill="#4C1B1B" d="M167.4,10.095c-13.694,14.037-14.492,27.921-18.568,53.588c-4.076,25.666-10.853,19.685-26.837,22.349
			c-4.256,0.709-7.825,2.588-10.799,4.942V33.386c0-6.179,5.009-11.188,11.187-11.188h6.993c6.129,0,11.099-4.969,11.099-11.099
			S135.506,0,129.377,0H70.819C64.689,0,59.72,4.969,59.72,11.099s4.969,11.099,11.099,11.099h6.993
			c6.179,0,11.187,5.009,11.187,11.188v57.588c-2.974-2.354-6.543-4.233-10.799-4.942c-15.984-2.664-22.761,3.317-26.837-22.349
			c-4.076-25.666-4.874-39.551-18.568-53.588c-22.06-22.613-47.286-1.332-22.644,13.32C34.793,38.067,23.804,81.69,40.787,98.673
			c16.983,16.983,48.212-3.996,48.212,29.97v18.338c0,6.179-5.009,11.188-11.187,11.188h-6.993c-6.129,0-11.099,4.969-11.099,11.099
			s4.969,11.099,11.099,11.099h58.558c6.129,0,11.099-4.969,11.099-11.099s-4.969-11.099-11.099-11.099h-6.993
			c-6.179,0-11.187-5.009-11.187-11.188v-18.338c0-33.966,31.229-12.987,48.212-29.97c16.982-16.983,5.994-60.606,30.636-75.258
			C214.686,8.763,189.46-12.518,167.4,10.095z"/>
		<g>
			<g>
				<path fill="#BD8D46" d="M245.145,143.571c-3.066,0-5.553-2.486-5.553-5.553V42.562c0-3.068,2.487-5.553,5.553-5.553
					c3.066,0,5.553,2.486,5.553,5.553v95.456C250.698,141.085,248.211,143.571,245.145,143.571z"/>
			</g>
		</g>
		<g>
			<g>
				<circle fill="#F6E497" cx="666.019" cy="120.475" r="5.409"/>
				<circle fill="#F6E497" cx="736.146" cy="120.475" r="5.409"/>
				<circle fill="#F6E497" cx="806.273" cy="120.475" r="5.409"/>
				<circle fill="#F6E497" cx="876.401" cy="120.475" r="5.409"/>
			</g>
			<g>
				<path fill="#4C1B1B" d="M322.667,87.571c-2.706,0-5.031-0.391-6.974-1.172c-1.943-0.78-3.554-1.876-4.83-3.286
					c-1.278-1.41-2.221-3.067-2.83-4.973c-0.61-1.905-0.914-4.002-0.914-6.288V47.099h7.26v24.066c0,1.792,0.2,3.325,0.6,4.602
					c0.4,1.277,0.971,2.315,1.715,3.115c0.743,0.8,1.619,1.392,2.63,1.772c1.009,0.381,2.143,0.571,3.401,0.571
					c1.258,0,2.401-0.19,3.43-0.571c1.029-0.381,1.915-0.972,2.658-1.772c0.743-0.8,1.315-1.838,1.715-3.115
					c0.4-1.277,0.6-2.81,0.6-4.602V47.099h7.26v24.752c0,2.287-0.315,4.383-0.943,6.288c-0.629,1.906-1.582,3.564-2.858,4.973
					c-1.277,1.41-2.906,2.506-4.887,3.286C327.716,87.18,325.372,87.571,322.667,87.571z"/>
				<path fill="#4C1B1B" d="M375.257,85.799c-1.372,0.42-3.096,0.8-5.173,1.143c-2.077,0.343-4.258,0.515-6.545,0.515
					c-2.364,0-4.479-0.363-6.345-1.087c-1.867-0.723-3.459-1.762-4.773-3.115c-1.315-1.352-2.325-2.991-3.03-4.916
					c-0.705-1.924-1.057-4.087-1.057-6.488c0-2.363,0.295-4.506,0.886-6.431c0.59-1.924,1.458-3.573,2.601-4.945
					c1.144-1.372,2.534-2.43,4.173-3.172c1.638-0.743,3.525-1.115,5.66-1.115c1.448,0,2.724,0.172,3.83,0.515
					c1.105,0.343,2.058,0.724,2.858,1.143V43.498l6.917-1.143V85.799z M355.421,71.679c0,3.049,0.723,5.441,2.172,7.174
					c1.448,1.734,3.449,2.601,6.002,2.601c1.105,0,2.048-0.048,2.83-0.143c0.78-0.095,1.419-0.2,1.915-0.315V63.848
					c-0.61-0.419-1.42-0.809-2.43-1.171c-1.01-0.362-2.086-0.543-3.229-0.543c-2.516,0-4.355,0.857-5.517,2.573
					C356.001,66.421,355.421,68.746,355.421,71.679z"/>
				<path fill="#4C1B1B" d="M403.536,63.048c-0.572-0.191-1.363-0.391-2.373-0.6c-1.01-0.209-2.182-0.315-3.516-0.315
					c-0.763,0-1.572,0.077-2.43,0.229c-0.857,0.153-1.458,0.286-1.8,0.4v23.952H386.5V58.246c1.334-0.495,3.001-0.962,5.002-1.4
					c2.001-0.438,4.22-0.658,6.66-0.658c0.457,0,0.99,0.029,1.6,0.086c0.609,0.057,1.22,0.134,1.829,0.229
					c0.609,0.096,1.201,0.21,1.772,0.343c0.572,0.134,1.029,0.257,1.372,0.371L403.536,63.048z"/>
				<path fill="#4C1B1B" d="M437.342,85.799c-1.335,0.343-3.068,0.695-5.202,1.057c-2.135,0.362-4.479,0.543-7.031,0.543
					c-2.401,0-4.412-0.343-6.031-1.029c-1.62-0.686-2.916-1.638-3.887-2.858c-0.972-1.22-1.668-2.677-2.086-4.374
					c-0.42-1.695-0.629-3.553-0.629-5.574V56.817h6.917V72.48c0,3.201,0.466,5.488,1.401,6.86c0.933,1.372,2.563,2.058,4.887,2.058
					c0.838,0,1.724-0.037,2.658-0.114c0.933-0.076,1.629-0.172,2.086-0.286v-24.18h6.917V85.799z"/>
				<path fill="#4C1B1B" d="M470.04,61.676c-0.762,0.8-1.763,1.925-3.001,3.373c-1.239,1.449-2.564,3.058-3.974,4.831
					c-1.41,1.772-2.83,3.621-4.258,5.544c-1.429,1.925-2.716,3.764-3.859,5.517h15.435v5.774h-23.78v-4.287
					c0.838-1.524,1.886-3.181,3.144-4.973c1.258-1.791,2.553-3.592,3.887-5.402c1.334-1.81,2.658-3.534,3.973-5.173
					c1.315-1.638,2.487-3.067,3.516-4.287h-13.776v-5.774h22.694V61.676z M458.693,53.216l-8.375-8.003l2.744-3.029l5.631,4.63
					l5.688-4.63l2.687,3.029L458.693,53.216z"/>
				<path fill="#4C1B1B" d="M477.579,71.908c0-2.629,0.391-4.935,1.172-6.917c0.781-1.981,1.819-3.63,3.115-4.945
					c1.295-1.315,2.781-2.306,4.459-2.972c1.676-0.666,3.391-1,5.144-1c4.116,0,7.326,1.277,9.632,3.83
					c2.306,2.554,3.459,6.365,3.459,11.433c0,0.381-0.01,0.81-0.029,1.286c-0.02,0.477-0.049,0.905-0.086,1.286h-19.721
					c0.19,2.401,1.038,4.259,2.544,5.574c1.505,1.315,3.687,1.972,6.545,1.972c1.676,0,3.21-0.152,4.602-0.458
					c1.391-0.305,2.487-0.629,3.287-0.971l0.914,5.659c-0.381,0.191-0.905,0.391-1.572,0.6c-0.667,0.21-1.429,0.4-2.287,0.572
					c-0.857,0.172-1.782,0.314-2.773,0.429c-0.992,0.114-2,0.172-3.029,0.172c-2.63,0-4.916-0.391-6.86-1.172
					c-1.943-0.781-3.544-1.867-4.802-3.258c-1.258-1.391-2.192-3.029-2.801-4.916C477.884,76.224,477.579,74.157,477.579,71.908z
					 M497.644,68.822c0-0.952-0.134-1.858-0.4-2.716c-0.267-0.857-0.657-1.6-1.171-2.229c-0.515-0.629-1.144-1.124-1.886-1.487
					c-0.743-0.362-1.629-0.543-2.658-0.543c-1.068,0-2.001,0.2-2.801,0.6c-0.8,0.4-1.477,0.924-2.029,1.572
					c-0.553,0.648-0.981,1.392-1.286,2.23c-0.305,0.839-0.514,1.696-0.629,2.573H497.644z"/>
				<path fill="#4C1B1B" d="M514.33,57.789c1.334-0.381,3.067-0.743,5.202-1.086c2.134-0.343,4.497-0.515,7.089-0.515
					c2.438,0,4.478,0.334,6.116,1c1.638,0.667,2.944,1.601,3.916,2.801c0.972,1.201,1.658,2.649,2.058,4.344
					c0.4,1.696,0.6,3.554,0.6,5.574v16.806h-6.917v-15.72c0-1.601-0.106-2.963-0.315-4.087c-0.21-1.123-0.553-2.038-1.029-2.744
					c-0.477-0.705-1.125-1.219-1.943-1.543c-0.82-0.324-1.82-0.486-3.001-0.486c-0.877,0-1.792,0.057-2.744,0.172
					c-0.953,0.115-1.658,0.21-2.115,0.286v24.123h-6.917V57.789z"/>
				<path fill="#4C1B1B" d="M546.313,97.346c-0.496,0-1.19-0.048-2.086-0.143c-0.895-0.096-1.686-0.277-2.373-0.543l0.915-5.659
					c0.838,0.266,1.849,0.4,3.029,0.4c1.601,0,2.724-0.467,3.373-1.401c0.647-0.935,0.971-2.335,0.971-4.201V56.817h6.917v29.097
					c0,3.887-0.924,6.764-2.773,8.632C552.438,96.412,549.78,97.346,546.313,97.346z M557.803,48.071
					c0,1.296-0.42,2.325-1.258,3.087c-0.838,0.763-1.829,1.144-2.972,1.144c-1.182,0-2.192-0.381-3.03-1.144
					c-0.838-0.762-1.258-1.791-1.258-3.087c0-1.334,0.419-2.381,1.258-3.144c0.838-0.762,1.848-1.144,3.03-1.144
					c1.143,0,2.134,0.382,2.972,1.144C557.383,45.69,557.803,46.737,557.803,48.071z"/>
				<path fill="#4C1B1B" d="M566.708,71.908c0-2.629,0.391-4.935,1.172-6.917c0.781-1.981,1.819-3.63,3.115-4.945
					c1.295-1.315,2.781-2.306,4.459-2.972c1.676-0.666,3.391-1,5.144-1c4.116,0,7.326,1.277,9.632,3.83
					c2.306,2.554,3.459,6.365,3.459,11.433c0,0.381-0.01,0.81-0.029,1.286c-0.02,0.477-0.049,0.905-0.086,1.286h-19.721
					c0.19,2.401,1.038,4.259,2.544,5.574c1.505,1.315,3.687,1.972,6.545,1.972c1.676,0,3.21-0.152,4.602-0.458
					c1.391-0.305,2.487-0.629,3.287-0.971l0.914,5.659c-0.381,0.191-0.905,0.391-1.572,0.6c-0.667,0.21-1.429,0.4-2.286,0.572
					c-0.857,0.172-1.782,0.314-2.773,0.429c-0.992,0.114-2,0.172-3.029,0.172c-2.63,0-4.916-0.391-6.86-1.172
					c-1.943-0.781-3.544-1.867-4.802-3.258c-1.258-1.391-2.192-3.029-2.801-4.916C567.013,76.224,566.708,74.157,566.708,71.908z
					 M586.773,68.822c0-0.952-0.134-1.858-0.4-2.716c-0.267-0.857-0.657-1.6-1.172-2.229c-0.515-0.629-1.143-1.124-1.886-1.487
					c-0.743-0.362-1.629-0.543-2.658-0.543c-1.068,0-2.001,0.2-2.801,0.6s-1.477,0.924-2.029,1.572
					c-0.553,0.648-0.982,1.392-1.286,2.23c-0.305,0.839-0.514,1.696-0.629,2.573H586.773z"/>
				<path fill="#4C1B1B" d="M632.732,46.699c5.754,0,10.166,1.049,13.234,3.144c3.067,2.096,4.602,5.373,4.602,9.832
					c0,2.325-0.41,4.316-1.229,5.974c-0.82,1.658-2.01,3.011-3.573,4.059c-1.563,1.049-3.468,1.82-5.717,2.315
					c-2.249,0.496-4.821,0.743-7.717,0.743h-3.601v13.948h-7.203V47.67c1.677-0.381,3.534-0.638,5.574-0.771
					C629.14,46.766,631.018,46.699,632.732,46.699z M633.247,52.93c-1.829,0-3.336,0.057-4.516,0.172v13.491h3.487
					c3.467,0,6.135-0.486,8.003-1.458c1.867-0.972,2.801-2.81,2.801-5.517c0-1.295-0.248-2.381-0.743-3.258
					c-0.496-0.876-1.182-1.562-2.058-2.058c-0.877-0.495-1.915-0.847-3.115-1.057C635.905,53.035,634.619,52.93,633.247,52.93z"/>
				<path fill="#4C1B1B" d="M667.533,81.74c1.829,0,3.163-0.219,4.002-0.657c0.838-0.438,1.258-1.19,1.258-2.258
					c0-0.99-0.448-1.81-1.344-2.458c-0.895-0.648-2.372-1.352-4.43-2.115c-1.258-0.457-2.411-0.943-3.459-1.458
					c-1.049-0.515-1.953-1.115-2.715-1.801c-0.763-0.686-1.363-1.515-1.801-2.487c-0.438-0.972-0.657-2.162-0.657-3.573
					c0-2.744,1.009-4.906,3.03-6.488c2.019-1.581,4.763-2.372,8.232-2.372c1.752,0,3.43,0.163,5.03,0.486
					c1.601,0.324,2.801,0.639,3.601,0.943l-1.258,5.602c-0.762-0.343-1.734-0.657-2.915-0.943c-1.182-0.286-2.554-0.429-4.116-0.429
					c-1.41,0-2.554,0.239-3.43,0.715c-0.878,0.477-1.315,1.21-1.315,2.2c0,0.496,0.086,0.935,0.258,1.315
					c0.171,0.381,0.466,0.734,0.886,1.057c0.419,0.324,0.972,0.648,1.658,0.971c0.686,0.325,1.524,0.658,2.515,1
					c1.638,0.61,3.03,1.211,4.173,1.801c1.143,0.591,2.086,1.258,2.83,2.001c0.743,0.743,1.286,1.591,1.629,2.544
					c0.343,0.953,0.514,2.096,0.514,3.43c0,2.858-1.057,5.021-3.172,6.488c-2.115,1.467-5.136,2.201-9.061,2.201
					c-2.63,0-4.745-0.22-6.345-0.658c-1.601-0.438-2.725-0.79-3.373-1.057l1.201-5.774c1.029,0.42,2.258,0.82,3.687,1.201
					C664.075,81.55,665.704,81.74,667.533,81.74z"/>
				<path fill="#4C1B1B" d="M696.389,48.071c0,1.296-0.42,2.325-1.258,3.087c-0.839,0.763-1.829,1.144-2.973,1.144
					c-1.182,0-2.192-0.381-3.03-1.144c-0.838-0.762-1.258-1.791-1.258-3.087c0-1.334,0.419-2.381,1.258-3.144
					c0.838-0.762,1.848-1.144,3.03-1.144c1.143,0,2.134,0.382,2.973,1.144C695.969,45.69,696.389,46.737,696.389,48.071z
					 M695.646,86.714h-6.917V56.817h6.917V86.714z"/>
				<path fill="#4C1B1B" d="M706.918,86.714V43.498l6.917-1.143V57.16c0.762-0.266,1.648-0.495,2.658-0.686
					c1.009-0.191,2.009-0.286,3.001-0.286c2.401,0,4.392,0.334,5.974,1c1.581,0.667,2.848,1.601,3.801,2.801
					c0.952,1.201,1.629,2.639,2.029,4.316c0.4,1.677,0.6,3.544,0.6,5.602v16.806h-6.917v-15.72c0-1.601-0.106-2.963-0.315-4.087
					c-0.21-1.123-0.553-2.038-1.029-2.744c-0.477-0.705-1.115-1.219-1.915-1.543c-0.8-0.324-1.792-0.486-2.973-0.486
					c-0.914,0-1.849,0.096-2.801,0.286c-0.953,0.191-1.658,0.362-2.115,0.514v23.78H706.918z"/>
				<path fill="#4C1B1B" d="M769.917,71.737c0,2.363-0.343,4.516-1.029,6.459c-0.686,1.943-1.658,3.601-2.915,4.973
					c-1.258,1.372-2.772,2.439-4.545,3.201c-1.772,0.762-3.726,1.144-5.859,1.144c-2.135,0-4.078-0.382-5.831-1.144
					c-1.753-0.762-3.258-1.829-4.516-3.201c-1.258-1.372-2.24-3.03-2.944-4.973c-0.705-1.944-1.057-4.096-1.057-6.459
					c0-2.363,0.352-4.507,1.057-6.431c0.705-1.924,1.696-3.573,2.973-4.945c1.276-1.372,2.791-2.43,4.545-3.173
					c1.752-0.743,3.677-1.114,5.774-1.114c2.095,0,4.03,0.372,5.802,1.114c1.772,0.743,3.287,1.801,4.545,3.173
					c1.258,1.372,2.238,3.02,2.944,4.945C769.564,67.23,769.917,69.374,769.917,71.737z M762.829,71.737
					c0-2.973-0.639-5.325-1.915-7.06c-1.277-1.733-3.058-2.601-5.344-2.601s-4.069,0.867-5.345,2.601
					c-1.277,1.735-1.915,4.087-1.915,7.06c0,3.011,0.638,5.393,1.915,7.145c1.276,1.753,3.058,2.63,5.345,2.63
					s4.067-0.876,5.344-2.63C762.19,77.13,762.829,74.748,762.829,71.737z"/>
				<path fill="#4C1B1B" d="M790.039,87.285c-2.058-0.039-3.764-0.267-5.116-0.686c-1.353-0.419-2.43-1.019-3.23-1.8
					c-0.8-0.781-1.363-1.753-1.686-2.915c-0.324-1.162-0.486-2.487-0.486-3.973V43.498l6.917-1.143v34.241
					c0,0.839,0.066,1.544,0.2,2.115c0.133,0.572,0.372,1.057,0.715,1.458c0.343,0.4,0.809,0.706,1.4,0.915
					c0.591,0.21,1.344,0.372,2.258,0.486L790.039,87.285z"/>
				<path fill="#4C1B1B" d="M826.115,71.737c0,2.363-0.343,4.516-1.029,6.459c-0.686,1.943-1.658,3.601-2.915,4.973
					c-1.258,1.372-2.772,2.439-4.545,3.201c-1.772,0.762-3.726,1.144-5.859,1.144c-2.135,0-4.078-0.382-5.831-1.144
					c-1.753-0.762-3.258-1.829-4.516-3.201c-1.258-1.372-2.24-3.03-2.944-4.973c-0.705-1.944-1.057-4.096-1.057-6.459
					c0-2.363,0.352-4.507,1.057-6.431c0.705-1.924,1.696-3.573,2.973-4.945c1.276-1.372,2.791-2.43,4.545-3.173
					c1.752-0.743,3.677-1.114,5.774-1.114c2.095,0,4.03,0.372,5.802,1.114c1.772,0.743,3.287,1.801,4.545,3.173
					c1.258,1.372,2.238,3.02,2.944,4.945C825.762,67.23,826.115,69.374,826.115,71.737z M819.026,71.737
					c0-2.973-0.639-5.325-1.915-7.06c-1.277-1.733-3.058-2.601-5.344-2.601c-2.286,0-4.069,0.867-5.345,2.601
					c-1.277,1.735-1.915,4.087-1.915,7.06c0,3.011,0.638,5.393,1.915,7.145c1.276,1.753,3.058,2.63,5.345,2.63
					c2.287,0,4.067-0.876,5.344-2.63C818.388,77.13,819.026,74.748,819.026,71.737z"/>
				<path fill="#4C1B1B" d="M860.659,83.684c0,4.764-1.211,8.251-3.63,10.461c-2.421,2.21-6.126,3.315-11.119,3.315
					c-1.829,0-3.611-0.153-5.344-0.457c-1.735-0.306-3.307-0.706-4.716-1.201l1.258-5.888c1.18,0.495,2.524,0.895,4.03,1.201
					c1.505,0.305,3.134,0.457,4.888,0.457c2.781,0,4.763-0.571,5.945-1.715c1.18-1.143,1.772-2.839,1.772-5.087v-1.144
					c-0.686,0.343-1.592,0.686-2.715,1.029c-1.125,0.343-2.411,0.515-3.859,0.515c-1.906,0-3.649-0.305-5.23-0.915
					c-1.582-0.609-2.935-1.505-4.058-2.687c-1.125-1.181-2.001-2.658-2.63-4.43c-0.629-1.772-0.943-3.82-0.943-6.145
					c0-2.172,0.333-4.173,1-6.002c0.666-1.829,1.638-3.392,2.915-4.688c1.277-1.295,2.83-2.305,4.659-3.029
					c1.829-0.724,3.906-1.087,6.231-1.087c2.248,0,4.382,0.172,6.402,0.515c2.019,0.343,3.734,0.705,5.145,1.086V83.684z
					 M841.394,70.994c0,2.935,0.638,5.079,1.915,6.431c1.276,1.353,2.924,2.029,4.945,2.029c1.105,0,2.143-0.152,3.115-0.457
					c0.971-0.305,1.762-0.666,2.372-1.087V62.419c-0.496-0.115-1.106-0.219-1.829-0.315c-0.724-0.094-1.639-0.143-2.744-0.143
					c-2.515,0-4.44,0.829-5.774,2.487C842.061,66.106,841.394,68.288,841.394,70.994z"/>
				<path fill="#4C1B1B" d="M881.957,56.074c2.287,0,4.211,0.286,5.774,0.857c1.562,0.572,2.81,1.372,3.744,2.401
					c0.933,1.029,1.601,2.278,2.001,3.744c0.4,1.467,0.6,3.078,0.6,4.83v18.121c-1.068,0.229-2.678,0.505-4.83,0.829
					c-2.154,0.323-4.583,0.486-7.289,0.486c-1.791,0-3.43-0.172-4.916-0.514c-1.487-0.343-2.754-0.895-3.802-1.658
					c-1.049-0.762-1.867-1.753-2.458-2.973c-0.591-1.219-0.886-2.724-0.886-4.516c0-1.715,0.333-3.162,1-4.344
					c0.666-1.18,1.572-2.143,2.715-2.887c1.144-0.743,2.467-1.276,3.973-1.6c1.505-0.324,3.077-0.486,4.716-0.486
					c0.762,0,1.562,0.049,2.401,0.143c0.838,0.096,1.733,0.257,2.687,0.486V67.85c0-0.8-0.096-1.562-0.286-2.287
					c-0.191-0.724-0.524-1.362-1-1.915c-0.477-0.552-1.106-0.98-1.886-1.286c-0.781-0.305-1.763-0.457-2.944-0.457
					c-1.601,0-3.068,0.115-4.401,0.343c-1.335,0.229-2.421,0.496-3.258,0.8l-0.857-5.602c0.876-0.305,2.152-0.609,3.83-0.915
					C878.261,56.226,880.051,56.074,881.957,56.074z M882.529,81.855c2.134,0,3.753-0.115,4.859-0.343v-7.66
					c-0.382-0.115-0.935-0.229-1.658-0.343c-0.724-0.114-1.525-0.172-2.401-0.172c-0.763,0-1.534,0.058-2.315,0.172
					c-0.782,0.115-1.486,0.324-2.115,0.629c-0.629,0.306-1.135,0.734-1.515,1.286c-0.381,0.553-0.572,1.249-0.572,2.087
					c0,1.639,0.515,2.772,1.544,3.401C879.385,81.54,880.776,81.855,882.529,81.855z"/>
				<path fill="#4C1B1B" d="M334.1,137.383c-1.296-2.173-2.744-4.506-4.344-7.003c-1.601-2.496-3.259-5.011-4.973-7.545
					c-1.715-2.534-3.459-4.992-5.23-7.374c-1.772-2.381-3.459-4.525-5.059-6.431v28.353h-7.088V97.768h5.888
					c1.524,1.601,3.163,3.497,4.916,5.688c1.753,2.192,3.516,4.469,5.288,6.831c1.772,2.363,3.487,4.736,5.145,7.117
					c1.658,2.382,3.134,4.602,4.43,6.66V97.768h7.146v39.615H334.1z"/>
				<path fill="#4C1B1B" d="M379.202,122.406c0,2.363-0.343,4.515-1.029,6.459c-0.686,1.943-1.658,3.601-2.915,4.973
					c-1.258,1.372-2.772,2.439-4.545,3.201c-1.772,0.762-3.726,1.144-5.859,1.144c-2.135,0-4.078-0.382-5.831-1.144
					c-1.753-0.762-3.258-1.829-4.516-3.201c-1.258-1.372-2.24-3.03-2.944-4.973c-0.705-1.944-1.057-4.096-1.057-6.459
					c0-2.363,0.352-4.507,1.057-6.431c0.705-1.924,1.696-3.573,2.973-4.945c1.276-1.372,2.791-2.43,4.545-3.173
					c1.752-0.743,3.677-1.114,5.774-1.114c2.095,0,4.03,0.372,5.802,1.114c1.772,0.743,3.287,1.801,4.545,3.173
					c1.258,1.372,2.238,3.02,2.944,4.945C378.849,117.899,379.202,120.043,379.202,122.406z M372.113,122.406
					c0-2.973-0.639-5.325-1.915-7.06c-1.277-1.733-3.058-2.601-5.344-2.601s-4.069,0.867-5.345,2.601
					c-1.277,1.735-1.915,4.087-1.915,7.06c0,3.011,0.638,5.393,1.915,7.145c1.276,1.753,3.058,2.63,5.345,2.63
					s4.067-0.876,5.344-2.63C371.474,127.799,372.113,125.417,372.113,122.406z"/>
				<path fill="#4C1B1B" d="M396.114,137.383c-1.913-3.925-3.875-8.432-5.884-13.519c-2.01-5.088-3.836-10.547-5.481-16.378h7.377
					c0.421,1.678,0.908,3.478,1.463,5.403c0.554,1.924,1.147,3.849,1.779,5.773c0.632,1.925,1.282,3.793,1.952,5.603
					c0.67,1.81,1.292,3.44,1.866,4.887c0.573-1.448,1.187-3.077,1.837-4.887c0.65-1.81,1.292-3.678,1.923-5.603
					c0.63-1.924,1.234-3.849,1.808-5.773c0.573-1.924,1.071-3.725,1.492-5.403h7.147c-1.645,5.831-3.473,11.29-5.481,16.378
					c-2.01,5.087-3.971,9.594-5.884,13.519H396.114z"/>
				<path fill="#4C1B1B" d="M429.111,98.74c0,1.296-0.42,2.325-1.258,3.087c-0.839,0.763-1.829,1.144-2.973,1.144
					c-1.182,0-2.192-0.381-3.03-1.144c-0.838-0.762-1.258-1.791-1.258-3.087c0-1.334,0.419-2.381,1.258-3.144
					c0.838-0.762,1.848-1.144,3.03-1.144c1.144,0,2.134,0.382,2.973,1.144C428.69,96.359,429.111,97.406,429.111,98.74z
					 M428.367,137.383h-6.917v-29.897h6.917V137.383z"/>
				<path fill="#4C1B1B" d="M468.894,97.368c5.754,0,10.166,1.049,13.233,3.144c3.067,2.096,4.602,5.373,4.602,9.832
					c0,2.325-0.41,4.316-1.229,5.974c-0.82,1.658-2.01,3.011-3.573,4.059c-1.563,1.049-3.468,1.82-5.717,2.315
					c-2.249,0.496-4.821,0.743-7.717,0.743h-3.601v13.948h-7.203V98.339c1.677-0.381,3.534-0.638,5.574-0.771
					C465.302,97.435,467.18,97.368,468.894,97.368z M469.409,103.599c-1.829,0-3.336,0.057-4.516,0.172v13.491h3.487
					c3.467,0,6.135-0.486,8.003-1.458c1.867-0.972,2.801-2.81,2.801-5.517c0-1.295-0.248-2.381-0.743-3.258
					c-0.496-0.876-1.182-1.562-2.058-2.058c-0.877-0.495-1.915-0.847-3.115-1.057C472.067,103.704,470.781,103.599,469.409,103.599z
					"/>
				<path fill="#4C1B1B" d="M504.998,106.743c2.287,0,4.211,0.286,5.774,0.857c1.562,0.572,2.81,1.372,3.744,2.401
					c0.933,1.029,1.601,2.278,2.001,3.744c0.4,1.467,0.6,3.078,0.6,4.83v18.121c-1.068,0.229-2.678,0.505-4.83,0.829
					c-2.154,0.323-4.583,0.486-7.289,0.486c-1.791,0-3.43-0.172-4.916-0.514c-1.487-0.343-2.754-0.895-3.802-1.658
					c-1.049-0.762-1.867-1.753-2.458-2.973c-0.591-1.219-0.886-2.724-0.886-4.516c0-1.715,0.333-3.162,1-4.344
					c0.666-1.18,1.572-2.143,2.715-2.887c1.144-0.743,2.467-1.276,3.973-1.6c1.505-0.324,3.077-0.486,4.716-0.486
					c0.762,0,1.562,0.049,2.401,0.143c0.838,0.096,1.733,0.257,2.687,0.486v-1.143c0-0.8-0.096-1.562-0.286-2.287
					c-0.191-0.724-0.524-1.362-1-1.915c-0.477-0.552-1.106-0.98-1.886-1.286c-0.781-0.305-1.763-0.457-2.944-0.457
					c-1.601,0-3.068,0.115-4.401,0.343c-1.335,0.229-2.421,0.496-3.258,0.8l-0.857-5.602c0.876-0.305,2.152-0.609,3.83-0.915
					C501.302,106.895,503.092,106.743,504.998,106.743z M505.57,132.524c2.134,0,3.753-0.115,4.859-0.343v-7.66
					c-0.382-0.115-0.935-0.229-1.658-0.343c-0.724-0.114-1.525-0.172-2.401-0.172c-0.763,0-1.534,0.058-2.315,0.172
					c-0.782,0.115-1.486,0.324-2.115,0.629c-0.629,0.306-1.135,0.734-1.515,1.286c-0.381,0.553-0.572,1.249-0.572,2.087
					c0,1.639,0.515,2.772,1.544,3.401S503.817,132.524,505.57,132.524z"/>
				<path fill="#4C1B1B" d="M548.992,112.345c-0.762,0.8-1.763,1.925-3.001,3.373c-1.239,1.449-2.564,3.058-3.974,4.831
					c-1.41,1.772-2.83,3.621-4.258,5.544c-1.429,1.925-2.716,3.764-3.859,5.517h15.435v5.774h-23.78v-4.287
					c0.838-1.524,1.886-3.181,3.144-4.973c1.258-1.791,2.553-3.592,3.887-5.402c1.334-1.81,2.658-3.534,3.973-5.173
					c1.315-1.638,2.487-3.067,3.516-4.287h-13.776v-5.774h22.694V112.345z"/>
				<path fill="#4C1B1B" d="M568.993,106.743c2.286,0,4.211,0.286,5.774,0.857c1.562,0.572,2.81,1.372,3.744,2.401
					c0.933,1.029,1.601,2.278,2.001,3.744c0.4,1.467,0.6,3.078,0.6,4.83v18.121c-1.068,0.229-2.678,0.505-4.83,0.829
					c-2.154,0.323-4.583,0.486-7.289,0.486c-1.791,0-3.43-0.172-4.916-0.514c-1.487-0.343-2.754-0.895-3.802-1.658
					c-1.049-0.762-1.867-1.753-2.458-2.973c-0.591-1.219-0.886-2.724-0.886-4.516c0-1.715,0.333-3.162,1-4.344
					c0.666-1.18,1.572-2.143,2.715-2.887c1.143-0.743,2.467-1.276,3.973-1.6c1.505-0.324,3.077-0.486,4.716-0.486
					c0.762,0,1.562,0.049,2.401,0.143c0.838,0.096,1.733,0.257,2.687,0.486v-1.143c0-0.8-0.096-1.562-0.286-2.287
					c-0.191-0.724-0.524-1.362-1-1.915c-0.477-0.552-1.106-0.98-1.886-1.286c-0.781-0.305-1.763-0.457-2.944-0.457
					c-1.601,0-3.068,0.115-4.401,0.343c-1.335,0.229-2.421,0.496-3.258,0.8l-0.857-5.602c0.876-0.305,2.152-0.609,3.83-0.915
					C565.297,106.895,567.087,106.743,568.993,106.743z M569.565,132.524c2.134,0,3.753-0.115,4.859-0.343v-7.66
					c-0.382-0.115-0.935-0.229-1.658-0.343c-0.724-0.114-1.525-0.172-2.401-0.172c-0.763,0-1.534,0.058-2.315,0.172
					c-0.782,0.115-1.486,0.324-2.115,0.629c-0.629,0.306-1.135,0.734-1.515,1.286c-0.381,0.553-0.572,1.249-0.572,2.087
					c0,1.639,0.515,2.772,1.544,3.401S567.812,132.524,569.565,132.524z"/>
				<path fill="#4C1B1B" d="M609.157,113.717c-0.572-0.191-1.363-0.391-2.373-0.6c-1.01-0.209-2.182-0.315-3.516-0.315
					c-0.763,0-1.572,0.077-2.43,0.229c-0.857,0.153-1.458,0.286-1.8,0.4v23.952h-6.917v-28.468c1.334-0.495,3.001-0.962,5.002-1.4
					c2.001-0.438,4.22-0.658,6.66-0.658c0.457,0,0.99,0.029,1.6,0.086c0.609,0.057,1.22,0.134,1.829,0.229
					c0.609,0.096,1.201,0.21,1.772,0.343c0.572,0.134,1.029,0.257,1.372,0.371L609.157,113.717z"/>
			</g>
		</g>
	</g>
</g>
<g>
	<g>
		<path fill="#FFFFFF" d="M638.16,1530.516c-0.086,4.864-1.585,8.865-4.578,12.227c-2.927,3.264-6.315,4.849-10.356,4.849
			c-4.056,0-7.429-1.59-10.31-4.867c-3.008-3.411-4.502-7.431-4.558-12.265v-26.067h-9.227v26.09
			c0.071,7.302,2.436,13.617,7.019,18.752c4.664,5.312,10.422,8.006,17.111,8.006c6.654,0,12.397-2.681,17.066-7.961
			c4.578-5.132,6.953-11.432,7.059-18.755v-26.133h-9.227V1530.516z"/>
		<path fill="#FFFFFF" d="M714.054,1506.927c-3.347-1.638-6.75-2.469-10.113-2.469h-17.628v52.362h9.358v-12.87h8.269
			c3.332,0,6.73-0.818,10.113-2.433c6.872-3.35,10.361-9.168,10.361-17.296S720.926,1510.275,714.054,1506.927z M695.672,1513.784
			h8.269c2.031,0,3.95,0.468,5.879,1.431c3.484,1.747,5.11,4.608,5.11,9.006c0,4.403-1.631,7.252-5.16,8.976
			c-1.879,0.955-3.793,1.433-5.829,1.461h-8.269V1513.784z"/>
		<polygon fill="#FFFFFF" points="798.258,1538.56 759.747,1500.276 759.747,1556.821 769.105,1556.821 769.105,1522.72 
			807.617,1560.388 807.617,1504.459 798.258,1504.459 		"/>
		<path fill="#FFFFFF" d="M874.284,1506.927c-3.342-1.638-6.745-2.469-10.113-2.469h-17.633v52.362h9.358v-12.87h8.275
			c3.337,0,6.73-0.818,10.108-2.433c6.877-3.347,10.366-9.166,10.366-17.296S881.156,1510.272,874.284,1506.927z M855.897,1513.784
			h8.275c2.026,0,3.945,0.468,5.874,1.431c3.489,1.747,5.115,4.608,5.115,9.006c0,4.403-1.631,7.252-5.155,8.976
			c-1.889,0.955-3.803,1.433-5.834,1.461h-8.275V1513.784z"/>
		<g>
			<g>
				<circle fill="#FFFFFF" cx="623.061" cy="1589.41" r="6.11"/>
				<circle fill="#FFFFFF" cx="702.279" cy="1589.41" r="6.11"/>
				<circle fill="#FFFFFF" cx="781.498" cy="1589.41" r="6.11"/>
				<circle fill="#FFFFFF" cx="860.716" cy="1589.41" r="6.11"/>
			</g>
		</g>
		<path fill="#FFFFFF" d="M462.282,1467.81c-13.694,14.037-14.492,27.921-18.568,53.588c-4.076,25.666-10.853,19.685-26.837,22.349
			c-4.256,0.709-7.825,2.588-10.799,4.942V1491.1c0-6.179,5.009-11.188,11.187-11.188h6.993c6.129,0,11.099-4.969,11.099-11.099
			c0-6.13-4.969-11.099-11.099-11.099H365.7c-6.129,0-11.099,4.969-11.099,11.099c0,6.13,4.969,11.099,11.099,11.099h6.993
			c6.179,0,11.187,5.009,11.187,11.188v57.588c-2.974-2.354-6.543-4.233-10.799-4.942c-15.984-2.664-22.761,3.317-26.837-22.349
			c-4.076-25.666-4.874-39.55-18.568-53.588c-22.06-22.613-47.286-1.332-22.644,13.32c24.643,14.652,13.654,58.275,30.636,75.258
			c16.983,16.983,48.212-3.996,48.212,29.97v18.338c0,6.179-5.009,11.188-11.187,11.188H365.7c-6.129,0-11.099,4.969-11.099,11.099
			c0,6.13,4.969,11.099,11.099,11.099h58.558c6.129,0,11.099-4.969,11.099-11.099c0-6.13-4.969-11.099-11.099-11.099h-6.993
			c-6.179,0-11.187-5.009-11.187-11.188v-18.338c0-33.966,31.229-12.987,48.212-29.97c16.982-16.983,5.994-60.606,30.636-75.258
			C509.568,1466.478,484.342,1445.196,462.282,1467.81z"/>
		<g>
			<g>
				<path fill="#FFFFFF" d="M540.026,1601.285c-3.066,0-5.553-2.486-5.553-5.553v-95.456c0-3.068,2.487-5.553,5.553-5.553
					s5.553,2.486,5.553,5.553v95.456C545.58,1598.8,543.092,1601.285,540.026,1601.285z"/>
			</g>
		</g>
	</g>
</g>
<rect x="1089.763" y="1047.898" fill="#4C1B1B" width="1000" height="1000"/>
<g>
	<g>
		<path fill="#FFFFFF" d="M1486.035,1662.465c-0.086,4.864-1.585,8.865-4.578,12.227c-2.927,3.264-6.315,4.849-10.356,4.849
			c-4.056,0-7.429-1.59-10.31-4.866c-3.008-3.411-4.502-7.431-4.558-12.265v-26.067h-9.227v26.09
			c0.071,7.302,2.436,13.617,7.019,18.752c4.664,5.312,10.422,8.006,17.111,8.006c6.654,0,12.397-2.681,17.066-7.961
			c4.578-5.132,6.953-11.432,7.059-18.754v-26.133h-9.227V1662.465z"/>
		<path fill="#FFFFFF" d="M1561.929,1638.877c-3.347-1.638-6.75-2.469-10.113-2.469h-17.628v52.362h9.358v-12.87h8.27
			c3.332,0,6.73-0.818,10.113-2.433c6.872-3.35,10.361-9.168,10.361-17.296C1572.29,1648.043,1568.801,1642.224,1561.929,1638.877z
			 M1543.547,1645.734h8.27c2.031,0,3.95,0.468,5.879,1.431c3.484,1.747,5.11,4.608,5.11,9.006c0,4.403-1.631,7.252-5.16,8.976
			c-1.879,0.955-3.793,1.433-5.829,1.461h-8.27V1645.734z"/>
		<polygon fill="#FFFFFF" points="1646.133,1670.509 1607.621,1632.226 1607.621,1688.77 1616.98,1688.77 1616.98,1654.669 
			1655.491,1692.338 1655.491,1636.408 1646.133,1636.408 		"/>
		<path fill="#FFFFFF" d="M1722.159,1638.877c-3.342-1.638-6.745-2.469-10.113-2.469h-17.633v52.362h9.358v-12.87h8.275
			c3.337,0,6.73-0.818,10.108-2.433c6.877-3.347,10.366-9.166,10.366-17.296S1729.031,1642.222,1722.159,1638.877z
			 M1703.771,1645.734h8.275c2.026,0,3.945,0.468,5.874,1.431c3.489,1.747,5.115,4.608,5.115,9.006c0,4.403-1.631,7.252-5.155,8.976
			c-1.889,0.955-3.803,1.433-5.834,1.461h-8.275V1645.734z"/>
		<g>
			<g>
				<circle fill="#FFFFFF" cx="1470.936" cy="1721.359" r="6.11"/>
				<circle fill="#FFFFFF" cx="1550.154" cy="1721.359" r="6.11"/>
				<circle fill="#FFFFFF" cx="1629.373" cy="1721.359" r="6.11"/>
				<circle fill="#FFFFFF" cx="1708.591" cy="1721.359" r="6.11"/>
			</g>
		</g>
		<path fill="#FFFFFF" d="M1657.066,1378.421c-13.694,14.037-14.492,27.921-18.568,53.588
			c-4.076,25.666-10.853,19.685-26.837,22.349c-4.256,0.709-7.825,2.588-10.799,4.942v-57.588c0-6.179,5.009-11.188,11.187-11.188
			h6.993c6.129,0,11.099-4.969,11.099-11.099c0-6.13-4.969-11.099-11.099-11.099h-58.558c-6.13,0-11.099,4.969-11.099,11.099
			c0,6.13,4.969,11.099,11.099,11.099h6.993c6.179,0,11.187,5.009,11.187,11.188v57.588c-2.974-2.354-6.543-4.233-10.799-4.942
			c-15.984-2.664-22.761,3.317-26.837-22.349c-4.076-25.666-4.874-39.55-18.568-53.588c-22.06-22.613-47.286-1.332-22.644,13.32
			c24.643,14.652,13.654,58.275,30.636,75.258c16.983,16.983,48.212-3.996,48.212,29.97v18.338c0,6.179-5.009,11.188-11.187,11.188
			h-6.993c-6.13,0-11.099,4.969-11.099,11.099s4.969,11.099,11.099,11.099h58.558c6.129,0,11.099-4.969,11.099-11.099
			s-4.969-11.099-11.099-11.099h-6.993c-6.179,0-11.187-5.009-11.187-11.188v-18.338c0-33.966,31.229-12.987,48.212-29.97
			c16.983-16.983,5.994-60.606,30.636-75.258C1704.352,1377.089,1679.126,1355.808,1657.066,1378.421z"/>
		<g>
			<g>
				<path fill="#FFFFFF" d="M1536.482,1589.956c0-3.066,2.486-5.553,5.553-5.553h95.456c3.068,0,5.553,2.487,5.553,5.553
					c0,3.066-2.486,5.553-5.553,5.553h-95.456C1538.968,1595.509,1536.482,1593.022,1536.482,1589.956z"/>
			</g>
		</g>
	</g>
</g>
<g>
	<g>
		<path fill="#4C1B1B" d="M2486.035,1662.465c-0.086,4.864-1.585,8.865-4.578,12.227c-2.927,3.264-6.315,4.849-10.356,4.849
			c-4.056,0-7.429-1.59-10.31-4.866c-3.008-3.411-4.502-7.431-4.558-12.265v-26.067h-9.227v26.09
			c0.071,7.302,2.436,13.617,7.019,18.752c4.664,5.312,10.422,8.006,17.111,8.006c6.654,0,12.397-2.681,17.066-7.961
			c4.578-5.132,6.953-11.432,7.059-18.754v-26.133h-9.227V1662.465z"/>
		<path fill="#4C1B1B" d="M2561.929,1638.877c-3.347-1.638-6.75-2.469-10.113-2.469h-17.628v52.362h9.358v-12.87h8.269
			c3.332,0,6.73-0.818,10.113-2.433c6.872-3.35,10.361-9.168,10.361-17.296C2572.29,1648.043,2568.801,1642.224,2561.929,1638.877z
			 M2543.547,1645.734h8.269c2.031,0,3.95,0.468,5.879,1.431c3.484,1.747,5.11,4.608,5.11,9.006c0,4.403-1.631,7.252-5.16,8.976
			c-1.879,0.955-3.793,1.433-5.829,1.461h-8.269V1645.734z"/>
		<polygon fill="#4C1B1B" points="2646.133,1670.509 2607.621,1632.226 2607.621,1688.77 2616.98,1688.77 2616.98,1654.669 
			2655.491,1692.338 2655.491,1636.408 2646.133,1636.408 		"/>
		<path fill="#4C1B1B" d="M2722.159,1638.877c-3.342-1.638-6.745-2.469-10.113-2.469h-17.633v52.362h9.358v-12.87h8.275
			c3.337,0,6.73-0.818,10.108-2.433c6.877-3.347,10.366-9.166,10.366-17.296S2729.031,1642.222,2722.159,1638.877z
			 M2703.771,1645.734h8.275c2.025,0,3.945,0.468,5.874,1.431c3.489,1.747,5.115,4.608,5.115,9.006c0,4.403-1.631,7.252-5.155,8.976
			c-1.889,0.955-3.803,1.433-5.833,1.461h-8.275V1645.734z"/>
		<g>
			<circle fill="#F6E497" cx="2470.936" cy="1721.359" r="6.11"/>
			<circle fill="#F6E497" cx="2550.154" cy="1721.359" r="6.11"/>
			<circle fill="#F6E497" cx="2629.373" cy="1721.359" r="6.11"/>
			<circle fill="#F6E497" cx="2708.591" cy="1721.359" r="6.11"/>
		</g>
		<path fill="#4C1B1B" d="M2657.066,1378.421c-13.694,14.037-14.492,27.921-18.568,53.588
			c-4.076,25.666-10.854,19.685-26.837,22.349c-4.256,0.709-7.825,2.588-10.799,4.942v-57.588c0-6.179,5.009-11.188,11.188-11.188
			h6.993c6.129,0,11.099-4.969,11.099-11.099c0-6.13-4.969-11.099-11.099-11.099h-58.558c-6.129,0-11.099,4.969-11.099,11.099
			c0,6.13,4.969,11.099,11.099,11.099h6.993c6.179,0,11.188,5.009,11.188,11.188v57.588c-2.974-2.354-6.543-4.233-10.799-4.942
			c-15.984-2.664-22.761,3.317-26.837-22.349c-4.076-25.666-4.874-39.55-18.568-53.588c-22.06-22.613-47.286-1.332-22.644,13.32
			c24.643,14.652,13.654,58.275,30.636,75.258c16.983,16.983,48.212-3.996,48.212,29.97v18.338c0,6.179-5.009,11.188-11.188,11.188
			h-6.993c-6.129,0-11.099,4.969-11.099,11.099s4.969,11.099,11.099,11.099h58.558c6.129,0,11.099-4.969,11.099-11.099
			s-4.969-11.099-11.099-11.099h-6.993c-6.179,0-11.188-5.009-11.188-11.188v-18.338c0-33.966,31.229-12.987,48.212-29.97
			c16.982-16.983,5.994-60.606,30.636-75.258C2704.352,1377.089,2679.126,1355.808,2657.066,1378.421z"/>
		<g>
			<path fill="#BD8D46" d="M2536.482,1589.956c0-3.066,2.486-5.553,5.553-5.553h95.456c3.068,0,5.553,2.487,5.553,5.553
				c0,3.066-2.486,5.553-5.553,5.553h-95.456C2538.968,1595.509,2536.482,1593.022,2536.482,1589.956z"/>
		</g>
	</g>
</g>
<g>
	<g>
		<path fill="#FFFFFF" d="M4705.477,1410.202c-23.544,24.134-24.916,48.005-31.924,92.133c-7.008,44.128-18.66,33.845-46.141,38.425
			c-7.317,1.219-13.453,4.45-18.566,8.497v-99.011c0-10.623,8.611-19.235,19.234-19.235h12.022c10.538,0,19.082-8.543,19.082-19.082
			c0-10.539-8.544-19.083-19.082-19.083h-100.678c-10.539,0-19.083,8.544-19.083,19.083c0,10.539,8.544,19.082,19.083,19.082h12.022
			c10.623,0,19.234,8.612,19.234,19.235v99.011c-5.113-4.047-11.25-7.277-18.566-8.497c-27.481-4.58-39.133,5.703-46.141-38.425
			c-7.008-44.128-8.379-67.999-31.923-92.133c-37.928-38.879-81.299-2.29-38.932,22.901
			c42.368,25.191,23.474,100.192,52.672,129.391c29.199,29.199,82.891-6.87,82.891,51.527v31.529
			c0,10.623-8.611,19.235-19.234,19.235h-12.022c-10.539,0-19.083,8.543-19.083,19.082c0,10.539,8.544,19.082,19.083,19.082h100.678
			c10.538,0,19.082-8.543,19.082-19.082c0-10.539-8.544-19.082-19.082-19.082h-12.022c-10.623,0-19.234-8.612-19.234-19.235v-31.529
			c0-58.397,53.691-22.328,82.891-51.527c29.198-29.199,10.305-104.2,52.672-129.391
			C4786.775,1407.912,4743.404,1371.323,4705.477,1410.202z"/>
	</g>
</g>
<g>
	<g>
		<path fill="#4C1B1B" d="M3705.477,1410.202c-23.544,24.134-24.916,48.005-31.924,92.133c-7.009,44.128-18.66,33.845-46.141,38.425
			c-7.317,1.219-13.453,4.45-18.566,8.497v-99.011c0-10.623,8.612-19.235,19.235-19.235h12.022c10.538,0,19.082-8.543,19.082-19.082
			c0-10.539-8.544-19.083-19.082-19.083h-100.678c-10.538,0-19.082,8.544-19.082,19.083c0,10.539,8.544,19.082,19.082,19.082h12.022
			c10.623,0,19.235,8.612,19.235,19.235v99.011c-5.114-4.047-11.25-7.277-18.566-8.497c-27.481-4.58-39.133,5.703-46.141-38.425
			c-7.008-44.128-8.379-67.999-31.924-92.133c-37.927-38.879-81.299-2.29-38.932,22.901
			c42.368,25.191,23.475,100.192,52.673,129.391c29.199,29.199,82.891-6.87,82.891,51.527v31.529
			c0,10.623-8.612,19.235-19.235,19.235h-12.022c-10.538,0-19.082,8.543-19.082,19.082c0,10.539,8.544,19.082,19.082,19.082h100.678
			c10.538,0,19.082-8.543,19.082-19.082c0-10.539-8.544-19.082-19.082-19.082h-12.022c-10.623,0-19.235-8.612-19.235-19.235v-31.529
			c0-58.397,53.691-22.328,82.891-51.527c29.198-29.199,10.305-104.2,52.673-129.391
			C3786.775,1407.912,3743.404,1371.323,3705.477,1410.202z"/>
	</g>
</g>
<g>
	<g>
		<g>
			<path fill="#FFFFFF" d="M-2508.512,84.093c-23.447-3.908-33.388,4.866-39.367-32.784c-5.979-37.65-7.15-58.016-27.237-78.607
				c-32.359-33.171-69.363-1.954-33.216,19.539c36.147,21.493,20.027,85.482,44.939,110.395s70.721-5.862,70.721,43.962h4.504
				l12.735-30.794C-2475.433,115.805-2485.065,88.001-2508.512,84.093z"/>
			<path fill="#FFFFFF" d="M-2377.666-27.297c-20.087,20.591-21.258,40.957-27.237,78.607c-5.979,37.65-15.92,28.876-39.367,32.784
				c-23.447,3.908-33.079,31.712-33.079,31.712l12.735,30.794h4.504c0-49.824,45.809-19.05,70.721-43.962
				s8.792-88.902,44.939-110.395C-2308.303-29.251-2345.306-60.468-2377.666-27.297z"/>
		</g>
		<path fill="#FFFFFF" d="M-2433.442,189.909h-10.257c-9.063,0-16.411-7.347-16.411-16.411V6.868
			c0-9.063,7.347-16.411,16.411-16.411h0h10.257c8.992,0,16.281-7.289,16.281-16.281c0-8.992-7.289-16.281-16.281-16.281h-85.897
			c-8.992,0-16.281,7.289-16.281,16.281c0,8.992,7.289,16.281,16.281,16.281h10.257c9.063,0,16.411,7.347,16.411,16.411v166.631
			c0,9.063-7.347,16.411-16.411,16.411l0,0h-10.257c-8.992,0-16.281,7.289-16.281,16.281c0,8.992,7.289,16.281,16.281,16.281h85.897
			c8.992,0,16.281-7.289,16.281-16.281C-2417.161,197.198-2424.45,189.909-2433.442,189.909z"/>
	</g>
	<g>
		<path fill="#FFFFFF" d="M-2263.624,168.496c-4.497,0-8.146-3.646-8.146-8.146V20.328c0-4.5,3.649-8.146,8.146-8.146
			s8.146,3.646,8.146,8.146V160.35C-2255.478,164.85-2259.126,168.496-2263.624,168.496z"/>
	</g>
	<g>
		<circle fill="#FFFFFF" cx="-1575.152" cy="134.409" r="8.962"/>
		<circle fill="#FFFFFF" cx="-1458.948" cy="134.409" r="8.962"/>
		<circle fill="#FFFFFF" cx="-1342.744" cy="134.409" r="8.962"/>
		<circle fill="#FFFFFF" cx="-1226.541" cy="134.409" r="8.962"/>
	</g>
	<g>
		<path fill="#FFFFFF" d="M-2144.101,79.886c-4.484,0-8.336-0.648-11.557-1.942c-3.22-1.293-5.889-3.109-8.004-5.446
			c-2.117-2.336-3.68-5.083-4.689-8.241c-1.011-3.157-1.515-6.631-1.515-10.42V12.821h12.03V52.7c0,2.969,0.332,5.51,0.995,7.625
			c0.662,2.116,1.61,3.836,2.842,5.162c1.231,1.326,2.683,2.306,4.357,2.937c1.672,0.632,3.552,0.947,5.636,0.947
			c2.084,0,3.979-0.315,5.684-0.947c1.705-0.631,3.173-1.611,4.404-2.937c1.232-1.326,2.179-3.046,2.842-5.162
			c0.663-2.115,0.995-4.656,0.995-7.625V12.821h12.03v41.016c0,3.789-0.521,7.263-1.563,10.42c-1.042,3.158-2.621,5.905-4.736,8.241
			c-2.116,2.337-4.816,4.153-8.098,5.446C-2135.734,79.237-2139.618,79.886-2144.101,79.886z"/>
		<path fill="#FFFFFF" d="M-2056.957,76.95c-2.273,0.696-5.131,1.325-8.573,1.894c-3.442,0.569-7.056,0.853-10.845,0.853
			c-3.917,0-7.421-0.601-10.514-1.8c-3.094-1.198-5.731-2.92-7.909-5.162c-2.178-2.24-3.853-4.957-5.021-8.145
			c-1.169-3.189-1.752-6.773-1.752-10.752c0-3.915,0.489-7.467,1.469-10.656c0.978-3.188,2.415-5.92,4.309-8.194
			c1.895-2.273,4.199-4.026,6.915-5.257c2.715-1.232,5.84-1.848,9.378-1.848c2.399,0,4.514,0.284,6.346,0.853
			c1.831,0.569,3.41,1.2,4.736,1.894V6.854l11.461-1.894V76.95z M-2089.825,53.552c0,5.053,1.198,9.015,3.599,11.888
			c2.399,2.874,5.714,4.31,9.946,4.31c1.831,0,3.394-0.079,4.689-0.237c1.293-0.157,2.352-0.332,3.173-0.521V40.575
			c-1.01-0.694-2.353-1.34-4.026-1.941c-1.674-0.599-3.457-0.9-5.351-0.9c-4.169,0-7.216,1.421-9.141,4.263
			C-2088.864,44.838-2089.825,48.691-2089.825,53.552z"/>
		<path fill="#FFFFFF" d="M-2010.098,39.25c-0.947-0.316-2.259-0.647-3.932-0.995c-1.673-0.346-3.616-0.521-5.825-0.521
			c-1.264,0-2.604,0.128-4.026,0.379c-1.421,0.254-2.415,0.474-2.983,0.663v39.689h-11.462V31.292c2.21-0.82,4.974-1.594,8.288-2.32
			c3.316-0.725,6.993-1.09,11.036-1.09c0.758,0,1.641,0.048,2.651,0.143c1.01,0.094,2.021,0.222,3.031,0.379
			c1.01,0.158,1.989,0.347,2.937,0.569c0.948,0.221,1.705,0.426,2.273,0.615L-2010.098,39.25z"/>
		<path fill="#FFFFFF" d="M-1954.079,76.95c-2.212,0.568-5.085,1.152-8.62,1.752c-3.538,0.599-7.421,0.899-11.651,0.899
			c-3.979,0-7.31-0.568-9.993-1.705c-2.685-1.136-4.832-2.715-6.441-4.735c-1.611-2.021-2.764-4.436-3.457-7.247
			c-0.696-2.809-1.042-5.888-1.042-9.236V28.924h11.461v25.954c0,5.305,0.772,9.094,2.321,11.367c1.547,2.274,4.246,3.41,8.098,3.41
			c1.388,0,2.857-0.062,4.405-0.189c1.547-0.126,2.7-0.284,3.457-0.474V28.924h11.462V76.95z"/>
		<path fill="#FFFFFF" d="M-1899.898,36.976c-1.263,1.326-2.921,3.19-4.973,5.588c-2.053,2.401-4.248,5.068-6.585,8.005
			c-2.337,2.936-4.689,6-7.056,9.187c-2.368,3.19-4.5,6.238-6.394,9.141h25.577v9.567h-39.405V71.36
			c1.388-2.525,3.126-5.272,5.21-8.241c2.084-2.967,4.231-5.951,6.441-8.951c2.21-2.999,4.405-5.856,6.583-8.572
			c2.179-2.715,4.12-5.083,5.826-7.104h-22.828v-9.567h37.604V36.976z M-1918.7,22.957l-13.877-13.262l4.546-5.02l9.331,7.672
			l9.424-7.672l4.452,5.02L-1918.7,22.957z"/>
		<path fill="#FFFFFF" d="M-1887.404,53.931c0-4.357,0.647-8.177,1.942-11.461c1.294-3.283,3.015-6.015,5.162-8.194
			c2.146-2.178,4.609-3.82,7.389-4.925c2.778-1.104,5.619-1.658,8.524-1.658c6.82,0,12.14,2.116,15.961,6.346
			c3.82,4.232,5.731,10.547,5.731,18.945c0,0.632-0.017,1.342-0.047,2.131c-0.033,0.79-0.081,1.5-0.143,2.131h-32.679
			c0.315,3.979,1.72,7.057,4.215,9.236c2.494,2.178,6.11,3.268,10.846,3.268c2.778,0,5.319-0.252,7.625-0.759
			c2.304-0.505,4.12-1.042,5.447-1.61l1.515,9.377c-0.632,0.317-1.5,0.648-2.604,0.995c-1.106,0.347-2.368,0.663-3.789,0.947
			c-1.421,0.284-2.953,0.52-4.595,0.71c-1.643,0.189-3.315,0.284-5.02,0.284c-4.358,0-8.146-0.648-11.368-1.942
			c-3.22-1.294-5.873-3.093-7.957-5.399c-2.084-2.304-3.631-5.02-4.641-8.146C-1886.899,61.083-1887.404,57.658-1887.404,53.931z
			 M-1854.156,48.817c0-1.578-0.221-3.079-0.663-4.5c-0.442-1.421-1.089-2.652-1.941-3.693c-0.853-1.042-1.895-1.862-3.126-2.464
			c-1.232-0.599-2.7-0.899-4.405-0.899c-1.769,0-3.316,0.332-4.642,0.995c-1.326,0.663-2.448,1.532-3.363,2.604
			c-0.916,1.074-1.626,2.306-2.131,3.694c-0.506,1.39-0.852,2.811-1.042,4.263H-1854.156z"/>
		<path fill="#FFFFFF" d="M-1826.507,30.535c2.21-0.631,5.083-1.231,8.62-1.8c3.536-0.569,7.451-0.853,11.746-0.853
			c4.04,0,7.419,0.554,10.135,1.658c2.715,1.106,4.878,2.652,6.489,4.642s2.747,4.39,3.41,7.199
			c0.663,2.811,0.995,5.889,0.995,9.236v27.848h-11.461V52.416c0-2.652-0.175-4.91-0.521-6.773
			c-0.347-1.862-0.916-3.378-1.705-4.546c-0.79-1.168-1.863-2.02-3.22-2.557c-1.359-0.536-3.016-0.806-4.973-0.806
			c-1.453,0-2.969,0.094-4.547,0.284c-1.579,0.19-2.747,0.348-3.505,0.473v39.974h-11.462V30.535z"/>
		<path fill="#FFFFFF" d="M-1773.51,96.083c-0.822,0-1.973-0.08-3.457-0.236c-1.484-0.158-2.794-0.459-3.932-0.9l1.516-9.377
			c1.389,0.441,3.064,0.663,5.02,0.663c2.652,0,4.514-0.774,5.589-2.321c1.073-1.549,1.61-3.869,1.61-6.962V28.924h11.462v48.214
			c0,6.441-1.532,11.208-4.595,14.303C-1763.36,94.535-1767.765,96.083-1773.51,96.083z M-1754.471,14.432
			c0,2.148-0.695,3.853-2.084,5.115c-1.389,1.264-3.031,1.895-4.925,1.895c-1.958,0-3.632-0.631-5.021-1.895
			c-1.389-1.262-2.084-2.967-2.084-5.115c0-2.21,0.695-3.945,2.084-5.21c1.388-1.262,3.063-1.895,5.021-1.895
			c1.894,0,3.536,0.633,4.925,1.895C-1755.166,10.486-1754.471,12.222-1754.471,14.432z"/>
		<path fill="#FFFFFF" d="M-1739.714,53.931c0-4.357,0.647-8.177,1.942-11.461c1.294-3.283,3.015-6.015,5.162-8.194
			c2.146-2.178,4.609-3.82,7.389-4.925c2.778-1.104,5.619-1.658,8.524-1.658c6.82,0,12.14,2.116,15.961,6.346
			c3.82,4.232,5.731,10.547,5.731,18.945c0,0.632-0.017,1.342-0.047,2.131c-0.033,0.79-0.081,1.5-0.143,2.131h-32.679
			c0.315,3.979,1.72,7.057,4.215,9.236c2.494,2.178,6.11,3.268,10.846,3.268c2.778,0,5.319-0.252,7.625-0.759
			c2.304-0.505,4.12-1.042,5.447-1.61l1.515,9.377c-0.632,0.317-1.5,0.648-2.604,0.995c-1.106,0.347-2.368,0.663-3.789,0.947
			c-1.421,0.284-2.953,0.52-4.595,0.71c-1.643,0.189-3.315,0.284-5.02,0.284c-4.358,0-8.146-0.648-11.368-1.942
			c-3.22-1.294-5.873-3.093-7.957-5.399c-2.084-2.304-3.631-5.02-4.641-8.146C-1739.209,61.083-1739.714,57.658-1739.714,53.931z
			 M-1706.466,48.817c0-1.578-0.221-3.079-0.663-4.5c-0.442-1.421-1.089-2.652-1.941-3.693c-0.853-1.042-1.895-1.862-3.126-2.464
			c-1.232-0.599-2.7-0.899-4.405-0.899c-1.769,0-3.316,0.332-4.642,0.995c-1.326,0.663-2.448,1.532-3.363,2.604
			c-0.916,1.074-1.626,2.306-2.131,3.694c-0.506,1.39-0.852,2.811-1.042,4.263H-1706.466z"/>
		<path fill="#FFFFFF" d="M-1630.309,12.159c9.535,0,16.845,1.737,21.928,5.21c5.083,3.473,7.625,8.904,7.625,16.292
			c0,3.853-0.679,7.152-2.037,9.899c-1.359,2.747-3.331,4.989-5.92,6.726c-2.59,1.737-5.747,3.016-9.473,3.836
			c-3.726,0.821-7.989,1.232-12.787,1.232h-5.967v23.112h-11.935V13.769c2.778-0.631,5.856-1.057,9.236-1.278
			C-1636.262,12.269-1633.151,12.159-1630.309,12.159z M-1629.456,22.484c-3.031,0-5.527,0.094-7.483,0.284v22.354h5.778
			c5.745,0,10.166-0.806,13.261-2.415c3.093-1.611,4.642-4.657,4.642-9.141c0-2.146-0.411-3.945-1.232-5.399
			c-0.822-1.451-1.958-2.589-3.41-3.41c-1.453-0.82-3.173-1.404-5.162-1.752C-1625.052,22.658-1627.184,22.484-1629.456,22.484z"/>
		<path fill="#FFFFFF" d="M-1572.643,70.224c3.031,0,5.241-0.363,6.631-1.089c1.388-0.725,2.084-1.973,2.084-3.742
			c0-1.641-0.743-2.999-2.227-4.073c-1.484-1.073-3.931-2.24-7.341-3.505c-2.084-0.758-3.995-1.563-5.731-2.415
			c-1.737-0.853-3.237-1.848-4.499-2.984c-1.264-1.136-2.259-2.51-2.984-4.12c-0.726-1.611-1.089-3.583-1.089-5.92
			c0-4.547,1.673-8.13,5.021-10.752c3.346-2.619,7.893-3.931,13.64-3.931c2.903,0,5.683,0.27,8.335,0.805
			c2.652,0.537,4.642,1.059,5.967,1.563l-2.084,9.283c-1.263-0.569-2.874-1.089-4.831-1.563c-1.958-0.473-4.232-0.71-6.82-0.71
			c-2.337,0-4.232,0.395-5.683,1.185c-1.454,0.79-2.179,2.005-2.179,3.646c0,0.821,0.143,1.549,0.427,2.179
			c0.283,0.632,0.772,1.216,1.468,1.752c0.694,0.537,1.611,1.074,2.747,1.61c1.136,0.538,2.525,1.09,4.168,1.658
			c2.715,1.011,5.021,2.006,6.915,2.984c1.895,0.98,3.457,2.084,4.689,3.316c1.232,1.231,2.131,2.637,2.7,4.215
			c0.569,1.579,0.852,3.474,0.852,5.684c0,4.735-1.752,8.321-5.257,10.751c-3.505,2.43-8.51,3.647-15.014,3.647
			c-4.358,0-7.862-0.365-10.514-1.09c-2.652-0.725-4.516-1.31-5.589-1.752l1.989-9.567c1.705,0.696,3.742,1.359,6.11,1.989
			C-1578.374,69.909-1575.674,70.224-1572.643,70.224z"/>
		<path fill="#FFFFFF" d="M-1524.827,14.432c0,2.148-0.696,3.853-2.084,5.115c-1.39,1.264-3.031,1.895-4.926,1.895
			c-1.958,0-3.632-0.631-5.021-1.895c-1.389-1.262-2.084-2.967-2.084-5.115c0-2.21,0.695-3.945,2.084-5.21
			c1.388-1.262,3.063-1.895,5.021-1.895c1.895,0,3.536,0.633,4.926,1.895C-1525.524,10.486-1524.827,12.222-1524.827,14.432z
			 M-1526.059,78.465h-11.461V28.924h11.461V78.465z"/>
		<path fill="#FFFFFF" d="M-1507.381,78.465V6.854l11.462-1.894v24.533c1.262-0.441,2.73-0.82,4.405-1.136
			c1.672-0.316,3.329-0.474,4.973-0.474c3.979,0,7.278,0.554,9.899,1.658c2.62,1.106,4.72,2.652,6.299,4.642
			c1.578,1.989,2.7,4.373,3.363,7.152c0.663,2.779,0.995,5.873,0.995,9.283v27.848h-11.461V52.416c0-2.652-0.175-4.91-0.521-6.773
			c-0.347-1.862-0.916-3.378-1.705-4.546c-0.79-1.168-1.847-2.02-3.173-2.557c-1.326-0.536-2.969-0.806-4.926-0.806
			c-1.515,0-3.064,0.158-4.641,0.474c-1.579,0.317-2.747,0.6-3.505,0.852v39.405H-1507.381z"/>
		<path fill="#FFFFFF" d="M-1402.988,53.648c0,3.916-0.569,7.482-1.705,10.704c-1.136,3.22-2.747,5.967-4.831,8.241
			c-2.084,2.273-4.594,4.042-7.531,5.304c-2.937,1.262-6.174,1.895-9.709,1.895c-3.538,0-6.758-0.633-9.662-1.895
			c-2.905-1.262-5.399-3.031-7.482-5.304c-2.084-2.274-3.711-5.021-4.879-8.241c-1.169-3.221-1.752-6.788-1.752-10.704
			c0-3.915,0.583-7.468,1.752-10.656c1.168-3.189,2.81-5.921,4.926-8.194c2.114-2.274,4.625-4.026,7.531-5.258
			c2.904-1.231,6.093-1.847,9.567-1.847c3.472,0,6.678,0.616,9.614,1.847c2.936,1.232,5.447,2.984,7.531,5.258
			c2.084,2.273,3.708,5.005,4.878,8.194C-1403.573,46.18-1402.988,49.733-1402.988,53.648z M-1414.734,53.648
			c0-4.926-1.059-8.824-3.174-11.699c-2.116-2.872-5.067-4.309-8.856-4.309c-3.789,0-6.742,1.437-8.857,4.309
			c-2.116,2.875-3.173,6.773-3.173,11.699c0,4.989,1.057,8.936,3.173,11.84c2.114,2.905,5.068,4.358,8.857,4.358
			c3.789,0,6.74-1.452,8.856-4.358C-1415.792,62.584-1414.734,58.637-1414.734,53.648z"/>
		<path fill="#FFFFFF" d="M-1369.646,79.412c-3.41-0.064-6.238-0.443-8.478-1.137c-2.242-0.694-4.026-1.688-5.352-2.983
			c-1.326-1.294-2.258-2.904-2.794-4.831c-0.537-1.925-0.805-4.12-0.805-6.584V6.854l11.461-1.894v56.739
			c0,1.39,0.109,2.558,0.332,3.505c0.22,0.947,0.616,1.752,1.185,2.415c0.568,0.663,1.34,1.17,2.32,1.516
			c0.979,0.347,2.226,0.616,3.742,0.805L-1369.646,79.412z"/>
		<path fill="#FFFFFF" d="M-1309.867,53.648c0,3.916-0.569,7.482-1.705,10.704c-1.136,3.22-2.747,5.967-4.831,8.241
			c-2.084,2.273-4.594,4.042-7.531,5.304c-2.937,1.262-6.174,1.895-9.709,1.895c-3.538,0-6.758-0.633-9.662-1.895
			c-2.905-1.262-5.399-3.031-7.482-5.304c-2.084-2.274-3.711-5.021-4.879-8.241c-1.169-3.221-1.752-6.788-1.752-10.704
			c0-3.915,0.583-7.468,1.752-10.656c1.168-3.189,2.81-5.921,4.926-8.194c2.114-2.274,4.625-4.026,7.531-5.258
			c2.903-1.231,6.093-1.847,9.567-1.847c3.472,0,6.677,0.616,9.614,1.847c2.936,1.232,5.447,2.984,7.531,5.258
			c2.084,2.273,3.708,5.005,4.878,8.194C-1310.451,46.18-1309.867,49.733-1309.867,53.648z M-1321.612,53.648
			c0-4.926-1.059-8.824-3.174-11.699c-2.116-2.872-5.067-4.309-8.856-4.309s-6.742,1.437-8.857,4.309
			c-2.116,2.875-3.173,6.773-3.173,11.699c0,4.989,1.057,8.936,3.173,11.84c2.114,2.905,5.068,4.358,8.857,4.358
			s6.74-1.452,8.856-4.358C-1322.671,62.584-1321.612,58.637-1321.612,53.648z"/>
		<path fill="#FFFFFF" d="M-1252.626,73.444c0,7.894-2.006,13.672-6.015,17.335c-4.011,3.662-10.151,5.494-18.424,5.494
			c-3.03,0-5.984-0.253-8.856-0.758c-2.875-0.507-5.48-1.17-7.815-1.989l2.084-9.757c1.956,0.821,4.182,1.484,6.677,1.989
			c2.494,0.505,5.194,0.758,8.099,0.758c4.609,0,7.893-0.947,9.851-2.841c1.956-1.894,2.936-4.705,2.936-8.43V73.35
			c-1.136,0.569-2.638,1.136-4.499,1.705c-1.863,0.569-3.995,0.853-6.394,0.853c-3.158,0-6.047-0.505-8.667-1.516
			c-2.621-1.009-4.863-2.494-6.725-4.452c-1.863-1.957-3.316-4.405-4.358-7.341c-1.042-2.937-1.563-6.33-1.563-10.183
			c0-3.599,0.552-6.915,1.658-9.946c1.104-3.031,2.715-5.62,4.831-7.768c2.115-2.146,4.689-3.819,7.72-5.02
			c3.031-1.199,6.472-1.8,10.325-1.8c3.725,0,7.261,0.284,10.609,0.853c3.346,0.569,6.188,1.169,8.525,1.8V73.444z
			 M-1284.548,52.416c0,4.863,1.057,8.416,3.173,10.656c2.114,2.242,4.846,3.363,8.194,3.363c1.831,0,3.552-0.252,5.162-0.758
			c1.61-0.505,2.92-1.104,3.931-1.8V38.208c-0.822-0.19-1.832-0.363-3.031-0.521c-1.2-0.157-2.715-0.237-4.546-0.237
			c-4.168,0-7.357,1.373-9.567,4.12C-1283.444,44.317-1284.548,47.932-1284.548,52.416z"/>
		<path fill="#FFFFFF" d="M-1217.333,27.693c3.789,0,6.978,0.473,9.567,1.421c2.589,0.947,4.657,2.274,6.204,3.979
			c1.547,1.705,2.652,3.774,3.316,6.204c0.663,2.431,0.995,5.1,0.995,8.004v30.028c-1.769,0.379-4.437,0.837-8.004,1.373
			c-3.568,0.535-7.594,0.805-12.078,0.805c-2.968,0-5.683-0.284-8.145-0.852c-2.464-0.569-4.563-1.484-6.3-2.747
			c-1.738-1.263-3.094-2.904-4.073-4.926c-0.98-2.02-1.468-4.514-1.468-7.483c0-2.841,0.552-5.24,1.658-7.199
			c1.104-1.956,2.604-3.552,4.499-4.784c1.895-1.231,4.088-2.114,6.583-2.652c2.494-0.536,5.099-0.806,7.815-0.806
			c1.262,0,2.589,0.081,3.979,0.237c1.388,0.158,2.872,0.426,4.452,0.805v-1.894c0-1.326-0.158-2.589-0.474-3.789
			c-0.317-1.199-0.869-2.257-1.658-3.174c-0.79-0.914-1.832-1.624-3.126-2.131c-1.295-0.505-2.921-0.758-4.878-0.758
			c-2.652,0-5.084,0.19-7.293,0.569c-2.212,0.379-4.011,0.821-5.399,1.326l-1.421-9.283c1.452-0.505,3.567-1.01,6.346-1.516
			C-1223.459,27.946-1220.491,27.693-1217.333,27.693z M-1216.386,70.414c3.536,0,6.219-0.19,8.052-0.569V57.152
			c-0.633-0.19-1.549-0.379-2.747-0.569c-1.2-0.189-2.526-0.284-3.979-0.284c-1.264,0-2.542,0.095-3.836,0.284
			c-1.296,0.19-2.463,0.537-3.505,1.042c-1.042,0.507-1.88,1.217-2.511,2.131c-0.632,0.917-0.947,2.07-0.947,3.458
			c0,2.715,0.853,4.594,2.558,5.636C-1221.595,69.892-1219.291,70.414-1216.386,70.414z"/>
		<path fill="#FFFFFF" d="M-2125.156,162.425c-2.148-3.6-4.546-7.467-7.199-11.604c-2.652-4.135-5.399-8.303-8.241-12.503
			c-2.842-4.199-5.731-8.272-8.667-12.22c-2.937-3.945-5.731-7.498-8.384-10.656v46.983h-11.745V96.782h9.756
			c2.525,2.652,5.241,5.795,8.146,9.425c2.905,3.632,5.825,7.405,8.762,11.319c2.936,3.916,5.778,7.847,8.525,11.793
			c2.747,3.947,5.193,7.626,7.341,11.036V96.782h11.841v65.644H-2125.156z"/>
		<path fill="#FFFFFF" d="M-2050.42,137.608c0,3.916-0.569,7.482-1.705,10.704c-1.136,3.22-2.747,5.967-4.831,8.241
			c-2.084,2.273-4.594,4.042-7.531,5.304s-6.174,1.895-9.709,1.895c-3.538,0-6.758-0.633-9.662-1.895
			c-2.905-1.262-5.399-3.031-7.482-5.304c-2.084-2.274-3.711-5.021-4.879-8.241c-1.169-3.221-1.752-6.788-1.752-10.704
			c0-3.915,0.583-7.468,1.752-10.656c1.168-3.189,2.81-5.921,4.926-8.194c2.115-2.274,4.625-4.026,7.531-5.258
			c2.904-1.231,6.093-1.847,9.567-1.847c3.472,0,6.678,0.616,9.615,1.847c2.936,1.232,5.447,2.984,7.531,5.258
			c2.084,2.273,3.708,5.005,4.878,8.194C-2051.005,130.141-2050.42,133.694-2050.42,137.608z M-2062.166,137.608
			c0-4.926-1.059-8.824-3.174-11.699c-2.116-2.872-5.067-4.309-8.856-4.309c-3.789,0-6.742,1.437-8.857,4.309
			c-2.116,2.875-3.173,6.773-3.173,11.699c0,4.989,1.057,8.936,3.173,11.84c2.115,2.905,5.068,4.358,8.857,4.358
			c3.789,0,6.74-1.452,8.856-4.358C-2063.225,146.545-2062.166,142.598-2062.166,137.608z"/>
		<path fill="#FFFFFF" d="M-2022.395,162.425c-3.17-6.503-6.421-13.972-9.75-22.402c-3.33-8.431-6.357-17.476-9.083-27.139h12.223
			c0.697,2.78,1.505,5.763,2.425,8.952c0.919,3.189,1.901,6.378,2.948,9.566c1.047,3.19,2.124,6.285,3.234,9.284
			c1.11,3,2.14,5.7,3.092,8.098c0.95-2.399,1.966-5.098,3.043-8.098c1.077-2.999,2.14-6.094,3.187-9.284
			c1.045-3.188,2.044-6.377,2.995-9.566c0.95-3.189,1.775-6.172,2.473-8.952h11.844c-2.726,9.663-5.754,18.708-9.083,27.139
			c-3.33,8.43-6.579,15.898-9.75,22.402H-2022.395z"/>
		<path fill="#FFFFFF" d="M-1967.719,98.392c0,2.148-0.697,3.853-2.084,5.115c-1.39,1.264-3.031,1.895-4.926,1.895
			c-1.958,0-3.632-0.631-5.021-1.895c-1.389-1.262-2.084-2.967-2.084-5.115c0-2.21,0.695-3.945,2.084-5.21
			c1.388-1.262,3.063-1.895,5.021-1.895c1.895,0,3.536,0.633,4.926,1.895C-1968.415,94.447-1967.719,96.183-1967.719,98.392z
			 M-1968.951,162.425h-11.461v-49.541h11.461V162.425z"/>
		<path fill="#FFFFFF" d="M-1901.796,96.12c9.535,0,16.845,1.737,21.928,5.21c5.083,3.473,7.625,8.904,7.625,16.292
			c0,3.853-0.679,7.152-2.037,9.899c-1.359,2.747-3.331,4.989-5.92,6.726c-2.59,1.737-5.747,3.016-9.473,3.836
			c-3.726,0.821-7.989,1.232-12.787,1.232h-5.967v23.112h-11.935V97.729c2.778-0.631,5.856-1.057,9.235-1.278
			C-1907.748,96.23-1904.637,96.12-1901.796,96.12z M-1900.943,106.444c-3.031,0-5.527,0.094-7.483,0.284v22.355h5.778
			c5.745,0,10.166-0.806,13.261-2.415c3.093-1.611,4.642-4.657,4.642-9.141c0-2.146-0.411-3.945-1.232-5.399
			c-0.821-1.451-1.958-2.589-3.41-3.41c-1.453-0.82-3.173-1.404-5.162-1.752C-1896.539,106.618-1898.67,106.444-1900.943,106.444z"
			/>
		<path fill="#FFFFFF" d="M-1841.97,111.654c3.789,0,6.978,0.473,9.567,1.421c2.589,0.947,4.657,2.274,6.204,3.979
			c1.547,1.705,2.652,3.774,3.316,6.204c0.663,2.431,0.995,5.1,0.995,8.004v30.028c-1.769,0.379-4.437,0.837-8.004,1.373
			c-3.568,0.535-7.594,0.805-12.078,0.805c-2.968,0-5.683-0.284-8.146-0.852c-2.464-0.569-4.563-1.484-6.3-2.747
			c-1.738-1.263-3.094-2.904-4.073-4.926c-0.98-2.02-1.468-4.514-1.468-7.483c0-2.841,0.552-5.24,1.658-7.199
			c1.104-1.956,2.604-3.552,4.499-4.784c1.895-1.231,4.088-2.114,6.583-2.652c2.494-0.536,5.099-0.806,7.815-0.806
			c1.262,0,2.589,0.081,3.979,0.237c1.388,0.158,2.872,0.426,4.452,0.805v-1.894c0-1.326-0.158-2.589-0.474-3.789
			c-0.317-1.199-0.869-2.257-1.658-3.174c-0.79-0.914-1.832-1.624-3.126-2.131c-1.295-0.505-2.921-0.758-4.878-0.758
			c-2.652,0-5.084,0.19-7.293,0.569c-2.212,0.379-4.011,0.821-5.399,1.326l-1.421-9.283c1.452-0.505,3.567-1.01,6.346-1.516
			C-1848.095,111.907-1845.128,111.654-1841.97,111.654z M-1841.022,154.374c3.536,0,6.219-0.19,8.052-0.569v-12.693
			c-0.633-0.19-1.549-0.379-2.747-0.569c-1.2-0.189-2.527-0.284-3.979-0.284c-1.264,0-2.542,0.095-3.836,0.284
			c-1.296,0.19-2.463,0.537-3.505,1.042c-1.042,0.507-1.88,1.217-2.511,2.131c-0.632,0.917-0.947,2.07-0.947,3.458
			c0,2.715,0.853,4.594,2.558,5.636C-1846.232,153.853-1843.928,154.374-1841.022,154.374z"/>
		<path fill="#FFFFFF" d="M-1769.071,120.937c-1.263,1.326-2.921,3.19-4.972,5.588c-2.053,2.401-4.248,5.068-6.585,8.005
			c-2.337,2.936-4.689,6-7.056,9.187c-2.368,3.19-4.5,6.238-6.394,9.141h25.577v9.567h-39.405v-7.105
			c1.388-2.525,3.126-5.272,5.21-8.241c2.084-2.967,4.231-5.951,6.441-8.951c2.21-2.999,4.405-5.856,6.583-8.572
			c2.179-2.715,4.12-5.083,5.825-7.104h-22.828v-9.567h37.604V120.937z"/>
		<path fill="#FFFFFF" d="M-1735.927,111.654c3.789,0,6.978,0.473,9.567,1.421c2.589,0.947,4.657,2.274,6.204,3.979
			c1.547,1.705,2.652,3.774,3.316,6.204c0.663,2.431,0.995,5.1,0.995,8.004v30.028c-1.769,0.379-4.437,0.837-8.004,1.373
			c-3.568,0.535-7.594,0.805-12.078,0.805c-2.968,0-5.683-0.284-8.146-0.852c-2.464-0.569-4.563-1.484-6.3-2.747
			c-1.737-1.263-3.094-2.904-4.073-4.926c-0.98-2.02-1.468-4.514-1.468-7.483c0-2.841,0.552-5.24,1.658-7.199
			c1.104-1.956,2.604-3.552,4.499-4.784c1.895-1.231,4.088-2.114,6.583-2.652c2.494-0.536,5.099-0.806,7.815-0.806
			c1.262,0,2.589,0.081,3.979,0.237c1.388,0.158,2.872,0.426,4.452,0.805v-1.894c0-1.326-0.158-2.589-0.474-3.789
			c-0.317-1.199-0.869-2.257-1.658-3.174c-0.79-0.914-1.832-1.624-3.126-2.131c-1.295-0.505-2.921-0.758-4.878-0.758
			c-2.653,0-5.084,0.19-7.293,0.569c-2.212,0.379-4.011,0.821-5.4,1.326l-1.421-9.283c1.452-0.505,3.567-1.01,6.346-1.516
			C-1742.053,111.907-1739.086,111.654-1735.927,111.654z M-1734.98,154.374c3.536,0,6.219-0.19,8.052-0.569v-12.693
			c-0.633-0.19-1.549-0.379-2.747-0.569c-1.2-0.189-2.527-0.284-3.979-0.284c-1.264,0-2.542,0.095-3.836,0.284
			c-1.296,0.19-2.463,0.537-3.505,1.042c-1.042,0.507-1.88,1.217-2.511,2.131c-0.632,0.917-0.948,2.07-0.948,3.458
			c0,2.715,0.853,4.594,2.558,5.636C-1740.19,153.853-1737.885,154.374-1734.98,154.374z"/>
		<path fill="#FFFFFF" d="M-1669.375,123.21c-0.948-0.316-2.259-0.647-3.932-0.995c-1.674-0.346-3.616-0.521-5.825-0.521
			c-1.264,0-2.604,0.128-4.026,0.379c-1.421,0.254-2.415,0.474-2.983,0.663v39.689h-11.462v-47.173
			c2.21-0.82,4.973-1.594,8.288-2.32c3.316-0.725,6.993-1.09,11.036-1.09c0.758,0,1.641,0.048,2.652,0.143
			c1.01,0.094,2.021,0.222,3.031,0.379c1.01,0.158,1.989,0.347,2.937,0.569c0.947,0.221,1.705,0.426,2.273,0.615L-1669.375,123.21z"
			/>
	</g>
</g>
</svg>
