<?xml version="1.0" encoding="utf-8"?>
<!-- Generator: Adobe Illustrator 17.0.0, SVG Export Plug-In . SVG Version: 6.00 Build 0)  -->
<!DOCTYPE svg PUBLIC "-//W3C//DTD SVG 1.1//EN" "http://www.w3.org/Graphics/SVG/1.1/DTD/svg11.dtd">
<svg version="1.1" id="Layer_1" xmlns="http://www.w3.org/2000/svg" xmlns:xlink="http://www.w3.org/1999/xlink" x="0px" y="0px"
	 width="1425.97px" height="264.576px" viewBox="0 0 1425.97 264.576" enable-background="new 0 0 1425.97 264.576"
	 xml:space="preserve">
<rect x="6712.985" y="1090.003" fill="#4C1B1B" width="1000" height="1000"/>
<rect x="2712.985" y="1090.003" fill="#4C1B1B" width="1000" height="1000"/>
<g>
	<g>
		<path fill="#4C1B1B" d="M2261.382,114.906c-0.086,4.864-1.585,8.865-4.578,12.227c-2.927,3.264-6.315,4.849-10.356,4.849
			c-4.056,0-7.429-1.59-10.31-4.866c-3.008-3.411-4.502-7.431-4.558-12.265V88.783h-9.227v26.09
			c0.071,7.302,2.436,13.617,7.019,18.752c4.664,5.312,10.422,8.006,17.111,8.006c6.654,0,12.397-2.681,17.066-7.961
			c4.578-5.132,6.953-11.432,7.059-18.754V88.783h-9.227V114.906z"/>
		<path fill="#4C1B1B" d="M2337.276,91.318c-3.347-1.638-6.75-2.469-10.113-2.469h-17.628v52.362h9.358v-12.87h8.27
			c3.332,0,6.73-0.818,10.113-2.433c6.872-3.35,10.361-9.168,10.361-17.296S2344.148,94.665,2337.276,91.318z M2318.894,98.174h8.27
			c2.031,0,3.95,0.468,5.879,1.431c3.484,1.747,5.11,4.608,5.11,9.006c0,4.403-1.631,7.252-5.16,8.976
			c-1.879,0.955-3.793,1.433-5.829,1.461h-8.27V98.174z"/>
		<polygon fill="#4C1B1B" points="2421.48,122.95 2382.969,84.666 2382.969,141.211 2392.327,141.211 2392.327,107.11 
			2430.839,144.778 2430.839,88.849 2421.48,88.849 		"/>
		<path fill="#4C1B1B" d="M2497.506,91.318c-3.342-1.638-6.745-2.469-10.113-2.469h-17.633v52.362h9.358v-12.87h8.274
			c3.337,0,6.73-0.818,10.108-2.433c6.877-3.347,10.366-9.166,10.366-17.296S2504.378,94.662,2497.506,91.318z M2479.119,98.174
			h8.274c2.026,0,3.945,0.468,5.874,1.431c3.489,1.747,5.115,4.608,5.115,9.006c0,4.403-1.631,7.252-5.155,8.976
			c-1.889,0.955-3.803,1.433-5.834,1.461h-8.274V98.174z"/>
		<g>
			<g>
				<circle fill="#F6E497" cx="2246.283" cy="173.8" r="6.11"/>
				<circle fill="#F6E497" cx="2325.501" cy="173.8" r="6.11"/>
				<circle fill="#F6E497" cx="2404.72" cy="173.8" r="6.11"/>
				<circle fill="#F6E497" cx="2483.938" cy="173.8" r="6.11"/>
			</g>
		</g>
		<path fill="#4C1B1B" d="M2085.504,52.2c-13.694,14.037-14.492,27.921-18.568,53.588c-4.076,25.666-10.854,19.685-26.837,22.349
			c-4.256,0.709-7.825,2.588-10.799,4.942V75.49c0-6.179,5.009-11.188,11.187-11.188h6.993c6.13,0,11.099-4.969,11.099-11.099
			s-4.969-11.099-11.099-11.099h-58.558c-6.129,0-11.099,4.969-11.099,11.099s4.969,11.099,11.099,11.099h6.993
			c6.179,0,11.188,5.009,11.188,11.188v57.588c-2.974-2.354-6.543-4.233-10.799-4.942c-15.984-2.664-22.761,3.317-26.837-22.349
			c-4.076-25.666-4.874-39.551-18.568-53.588c-22.06-22.613-47.286-1.332-22.644,13.32c24.643,14.652,13.654,58.275,30.636,75.258
			c16.983,16.983,48.212-3.996,48.212,29.97v18.338c0,6.179-5.009,11.188-11.188,11.188h-6.993c-6.129,0-11.099,4.969-11.099,11.099
			c0,6.13,4.969,11.099,11.099,11.099h58.558c6.13,0,11.099-4.969,11.099-11.099c0-6.13-4.969-11.099-11.099-11.099h-6.993
			c-6.179,0-11.187-5.009-11.187-11.188v-18.338c0-33.966,31.229-12.987,48.212-29.97c16.982-16.983,5.994-60.606,30.636-75.258
			C2132.79,50.868,2107.564,29.586,2085.504,52.2z"/>
		<g>
			<g>
				<path fill="#BD8D46" d="M2163.248,185.676c-3.066,0-5.553-2.486-5.553-5.553V84.667c0-3.068,2.487-5.553,5.553-5.553
					s5.553,2.486,5.553,5.553v95.456C2168.802,183.19,2166.314,185.676,2163.248,185.676z"/>
			</g>
		</g>
	</g>
</g>
<g>
	<g>
		<path fill="#4C1B1B" d="M2790.622,52.2c-13.694,14.037-14.492,27.921-18.568,53.588c-4.076,25.666-10.854,19.685-26.837,22.349
			c-4.256,0.709-7.825,2.588-10.799,4.942V75.49c0-6.179,5.009-11.188,11.187-11.188h6.993c6.13,0,11.099-4.969,11.099-11.099
			s-4.969-11.099-11.099-11.099h-58.558c-6.129,0-11.099,4.969-11.099,11.099s4.969,11.099,11.099,11.099h6.993
			c6.179,0,11.188,5.009,11.188,11.188v57.588c-2.974-2.354-6.543-4.233-10.799-4.942c-15.984-2.664-22.761,3.317-26.837-22.349
			c-4.076-25.666-4.874-39.551-18.568-53.588c-22.06-22.613-47.286-1.332-22.644,13.32c24.643,14.652,13.654,58.275,30.636,75.258
			c16.983,16.983,48.212-3.996,48.212,29.97v18.338c0,6.179-5.009,11.188-11.188,11.188h-6.993c-6.129,0-11.099,4.969-11.099,11.099
			c0,6.13,4.969,11.099,11.099,11.099h58.558c6.13,0,11.099-4.969,11.099-11.099c0-6.13-4.969-11.099-11.099-11.099h-6.993
			c-6.179,0-11.187-5.009-11.187-11.188v-18.338c0-33.966,31.229-12.987,48.212-29.97c16.982-16.983,5.994-60.606,30.636-75.258
			C2837.908,50.868,2812.682,29.586,2790.622,52.2z"/>
		<g>
			<g>
				<path fill="#BD8D46" d="M2868.367,185.676c-3.066,0-5.553-2.486-5.553-5.553V84.667c0-3.068,2.487-5.553,5.553-5.553
					c3.066,0,5.553,2.486,5.553,5.553v95.456C2873.92,183.19,2871.432,185.676,2868.367,185.676z"/>
			</g>
		</g>
		<g>
			<g>
				<circle fill="#F6E497" cx="3289.241" cy="162.58" r="5.409"/>
				<circle fill="#F6E497" cx="3359.368" cy="162.58" r="5.409"/>
				<circle fill="#F6E497" cx="3429.495" cy="162.58" r="5.409"/>
				<circle fill="#F6E497" cx="3499.623" cy="162.58" r="5.409"/>
			</g>
			<g>
				<path fill="#4C1B1B" d="M2945.889,129.676c-2.706,0-5.031-0.391-6.974-1.172c-1.943-0.78-3.554-1.876-4.83-3.286
					c-1.278-1.41-2.22-3.067-2.83-4.973c-0.61-1.905-0.915-4.002-0.915-6.288V89.204h7.26v24.066c0,1.792,0.2,3.325,0.6,4.602
					c0.4,1.277,0.971,2.315,1.715,3.115c0.743,0.8,1.619,1.392,2.63,1.772c1.009,0.381,2.144,0.571,3.401,0.571
					s2.401-0.19,3.43-0.571c1.029-0.381,1.915-0.972,2.658-1.772c0.743-0.8,1.315-1.838,1.715-3.115c0.4-1.277,0.6-2.81,0.6-4.602
					V89.204h7.26v24.752c0,2.287-0.315,4.383-0.944,6.288c-0.629,1.906-1.582,3.564-2.858,4.973
					c-1.277,1.41-2.906,2.506-4.887,3.286C2950.938,129.285,2948.594,129.676,2945.889,129.676z"/>
				<path fill="#4C1B1B" d="M2998.479,127.904c-1.372,0.42-3.096,0.8-5.173,1.143c-2.078,0.343-4.259,0.515-6.545,0.515
					c-2.364,0-4.479-0.363-6.345-1.087c-1.867-0.723-3.459-1.762-4.773-3.115c-1.315-1.352-2.325-2.991-3.03-4.916
					c-0.705-1.924-1.057-4.087-1.057-6.488c0-2.363,0.295-4.506,0.886-6.431c0.59-1.924,1.458-3.573,2.601-4.945
					c1.144-1.372,2.534-2.43,4.173-3.172c1.638-0.743,3.525-1.115,5.66-1.115c1.448,0,2.724,0.172,3.83,0.515
					c1.105,0.343,2.058,0.724,2.858,1.143V85.602l6.917-1.143V127.904z M2978.643,113.784c0,3.049,0.723,5.441,2.172,7.174
					c1.448,1.734,3.448,2.601,6.002,2.601c1.105,0,2.048-0.048,2.83-0.143c0.78-0.095,1.419-0.2,1.915-0.315v-17.149
					c-0.61-0.419-1.42-0.809-2.43-1.171c-1.01-0.362-2.086-0.543-3.229-0.543c-2.516,0-4.355,0.857-5.517,2.573
					C2979.223,108.525,2978.643,110.85,2978.643,113.784z"/>
				<path fill="#4C1B1B" d="M3026.758,105.153c-0.572-0.191-1.363-0.391-2.373-0.6c-1.01-0.209-2.182-0.315-3.516-0.315
					c-0.763,0-1.572,0.077-2.429,0.229c-0.857,0.153-1.458,0.286-1.8,0.4v23.952h-6.917v-28.468c1.333-0.495,3.001-0.962,5.002-1.4
					c2.001-0.438,4.22-0.658,6.66-0.658c0.457,0,0.99,0.029,1.6,0.086c0.609,0.057,1.219,0.134,1.829,0.229
					c0.609,0.096,1.201,0.21,1.772,0.343s1.029,0.257,1.372,0.371L3026.758,105.153z"/>
				<path fill="#4C1B1B" d="M3060.564,127.904c-1.335,0.343-3.069,0.695-5.202,1.057c-2.135,0.362-4.479,0.543-7.031,0.543
					c-2.401,0-4.412-0.343-6.031-1.029c-1.62-0.686-2.916-1.638-3.887-2.858c-0.972-1.22-1.668-2.677-2.086-4.374
					c-0.42-1.695-0.629-3.553-0.629-5.574V98.921h6.917v15.663c0,3.201,0.466,5.488,1.401,6.86c0.933,1.372,2.563,2.058,4.887,2.058
					c0.838,0,1.724-0.037,2.658-0.114c0.933-0.076,1.629-0.172,2.086-0.286v-24.18h6.917V127.904z"/>
				<path fill="#4C1B1B" d="M3093.262,103.781c-0.762,0.8-1.763,1.925-3.001,3.373c-1.239,1.449-2.564,3.058-3.974,4.831
					c-1.41,1.772-2.83,3.621-4.258,5.544c-1.429,1.925-2.716,3.764-3.859,5.517h15.435v5.774h-23.78v-4.287
					c0.838-1.524,1.886-3.181,3.144-4.973c1.258-1.791,2.553-3.592,3.887-5.402c1.333-1.81,2.658-3.534,3.973-5.173
					c1.315-1.638,2.487-3.067,3.515-4.287h-13.776v-5.774h22.694V103.781z M3081.915,95.32l-8.375-8.003l2.744-3.029l5.631,4.63
					l5.688-4.63l2.687,3.029L3081.915,95.32z"/>
				<path fill="#4C1B1B" d="M3100.802,114.013c0-2.629,0.391-4.935,1.172-6.917c0.781-1.981,1.819-3.63,3.115-4.945
					c1.295-1.315,2.781-2.306,4.459-2.972c1.676-0.666,3.391-1,5.144-1c4.116,0,7.326,1.277,9.633,3.83
					c2.305,2.554,3.458,6.365,3.458,11.433c0,0.381-0.01,0.81-0.029,1.286c-0.02,0.477-0.049,0.905-0.086,1.286h-19.721
					c0.19,2.401,1.038,4.259,2.543,5.574c1.505,1.315,3.687,1.972,6.546,1.972c1.676,0,3.21-0.152,4.602-0.458
					c1.391-0.305,2.487-0.629,3.287-0.971l0.915,5.659c-0.381,0.191-0.906,0.391-1.572,0.6c-0.667,0.21-1.429,0.4-2.286,0.572
					c-0.857,0.172-1.782,0.314-2.773,0.429c-0.991,0.114-2,0.172-3.029,0.172c-2.63,0-4.916-0.391-6.86-1.172
					c-1.943-0.781-3.544-1.867-4.802-3.258c-1.258-1.391-2.191-3.029-2.801-4.916
					C3101.106,118.329,3100.802,116.262,3100.802,114.013z M3120.866,110.926c0-0.952-0.134-1.858-0.4-2.716
					c-0.267-0.857-0.657-1.6-1.171-2.229c-0.515-0.629-1.144-1.124-1.886-1.487c-0.743-0.362-1.629-0.543-2.658-0.543
					c-1.067,0-2.001,0.2-2.801,0.6s-1.477,0.924-2.029,1.572c-0.553,0.648-0.982,1.392-1.286,2.23
					c-0.305,0.839-0.514,1.696-0.629,2.573H3120.866z"/>
				<path fill="#4C1B1B" d="M3137.552,99.893c1.333-0.381,3.067-0.743,5.202-1.086c2.134-0.343,4.496-0.515,7.089-0.515
					c2.438,0,4.478,0.334,6.116,1c1.638,0.667,2.944,1.601,3.916,2.801c0.972,1.201,1.658,2.649,2.058,4.344
					c0.4,1.696,0.6,3.554,0.6,5.574v16.806h-6.917v-15.72c0-1.601-0.106-2.963-0.315-4.087c-0.209-1.123-0.553-2.038-1.029-2.744
					c-0.477-0.705-1.125-1.219-1.943-1.543c-0.82-0.324-1.82-0.486-3.001-0.486c-0.877,0-1.792,0.057-2.744,0.172
					c-0.953,0.115-1.658,0.21-2.115,0.286v24.123h-6.917V99.893z"/>
				<path fill="#4C1B1B" d="M3169.535,139.451c-0.496,0-1.19-0.048-2.086-0.143c-0.895-0.096-1.686-0.277-2.373-0.543l0.915-5.659
					c0.838,0.266,1.849,0.4,3.03,0.4c1.601,0,2.724-0.467,3.373-1.401c0.647-0.935,0.971-2.335,0.971-4.201V98.921h6.917v29.097
					c0,3.887-0.924,6.764-2.773,8.632C3175.66,138.517,3173.002,139.451,3169.535,139.451z M3181.025,90.175
					c0,1.296-0.42,2.325-1.258,3.087c-0.838,0.763-1.829,1.144-2.972,1.144c-1.181,0-2.192-0.381-3.03-1.144
					c-0.838-0.762-1.258-1.791-1.258-3.087c0-1.334,0.419-2.381,1.258-3.144c0.838-0.762,1.848-1.144,3.03-1.144
					c1.143,0,2.134,0.382,2.972,1.144C3180.605,87.794,3181.025,88.842,3181.025,90.175z"/>
				<path fill="#4C1B1B" d="M3189.93,114.013c0-2.629,0.391-4.935,1.172-6.917c0.781-1.981,1.819-3.63,3.115-4.945
					c1.295-1.315,2.781-2.306,4.459-2.972c1.676-0.666,3.391-1,5.144-1c4.116,0,7.326,1.277,9.632,3.83
					c2.305,2.554,3.458,6.365,3.458,11.433c0,0.381-0.01,0.81-0.028,1.286c-0.02,0.477-0.049,0.905-0.086,1.286h-19.721
					c0.19,2.401,1.038,4.259,2.544,5.574c1.505,1.315,3.687,1.972,6.545,1.972c1.676,0,3.21-0.152,4.602-0.458
					c1.391-0.305,2.487-0.629,3.287-0.971l0.914,5.659c-0.381,0.191-0.906,0.391-1.572,0.6c-0.667,0.21-1.429,0.4-2.286,0.572
					c-0.857,0.172-1.782,0.314-2.773,0.429c-0.991,0.114-2,0.172-3.029,0.172c-2.63,0-4.916-0.391-6.86-1.172
					c-1.943-0.781-3.544-1.867-4.802-3.258c-1.258-1.391-2.191-3.029-2.801-4.916C3190.235,118.329,3189.93,116.262,3189.93,114.013
					z M3209.995,110.926c0-0.952-0.134-1.858-0.4-2.716c-0.267-0.857-0.657-1.6-1.171-2.229c-0.515-0.629-1.144-1.124-1.886-1.487
					c-0.743-0.362-1.629-0.543-2.658-0.543c-1.067,0-2.001,0.2-2.801,0.6c-0.8,0.4-1.477,0.924-2.029,1.572
					c-0.553,0.648-0.981,1.392-1.286,2.23c-0.305,0.839-0.514,1.696-0.629,2.573H3209.995z"/>
				<path fill="#4C1B1B" d="M3255.954,88.804c5.754,0,10.166,1.049,13.233,3.144c3.067,2.096,4.602,5.373,4.602,9.832
					c0,2.325-0.41,4.316-1.229,5.974c-0.82,1.658-2.01,3.011-3.573,4.059c-1.563,1.049-3.468,1.82-5.717,2.315
					c-2.249,0.496-4.821,0.743-7.717,0.743h-3.601v13.948h-7.203V89.775c1.677-0.381,3.534-0.638,5.573-0.771
					C3252.362,88.87,3254.24,88.804,3255.954,88.804z M3256.469,95.035c-1.829,0-3.335,0.057-4.516,0.172v13.491h3.487
					c3.467,0,6.135-0.486,8.002-1.458c1.867-0.972,2.801-2.81,2.801-5.517c0-1.295-0.248-2.381-0.743-3.258
					c-0.496-0.876-1.181-1.562-2.058-2.058c-0.877-0.495-1.915-0.847-3.115-1.057C3259.127,95.14,3257.841,95.035,3256.469,95.035z"
					/>
				<path fill="#4C1B1B" d="M3290.755,123.845c1.829,0,3.163-0.219,4.002-0.657c0.838-0.438,1.258-1.19,1.258-2.258
					c0-0.99-0.448-1.81-1.344-2.458c-0.896-0.648-2.372-1.352-4.43-2.115c-1.258-0.457-2.411-0.943-3.458-1.458
					c-1.049-0.515-1.953-1.115-2.715-1.801c-0.763-0.686-1.363-1.515-1.801-2.487c-0.438-0.972-0.657-2.162-0.657-3.573
					c0-2.744,1.009-4.906,3.03-6.488c2.02-1.581,4.763-2.372,8.232-2.372c1.752,0,3.429,0.163,5.03,0.486
					c1.601,0.324,2.801,0.639,3.601,0.943l-1.258,5.602c-0.762-0.343-1.734-0.657-2.915-0.943c-1.182-0.286-2.554-0.429-4.116-0.429
					c-1.41,0-2.554,0.239-3.429,0.715c-0.878,0.477-1.315,1.21-1.315,2.2c0,0.496,0.086,0.935,0.258,1.315
					c0.171,0.381,0.466,0.734,0.886,1.057c0.419,0.324,0.972,0.648,1.658,0.971c0.686,0.325,1.524,0.658,2.515,1
					c1.638,0.61,3.03,1.211,4.173,1.801c1.144,0.591,2.086,1.258,2.83,2.001c0.743,0.743,1.286,1.591,1.629,2.544
					c0.343,0.953,0.514,2.096,0.514,3.43c0,2.858-1.057,5.021-3.172,6.488c-2.115,1.467-5.136,2.201-9.061,2.201
					c-2.63,0-4.745-0.22-6.345-0.658c-1.601-0.438-2.725-0.79-3.373-1.057l1.201-5.774c1.029,0.42,2.258,0.82,3.687,1.201
					C3287.297,123.655,3288.926,123.845,3290.755,123.845z"/>
				<path fill="#4C1B1B" d="M3319.611,90.175c0,1.296-0.42,2.325-1.258,3.087c-0.839,0.763-1.829,1.144-2.973,1.144
					c-1.181,0-2.192-0.381-3.03-1.144c-0.838-0.762-1.258-1.791-1.258-3.087c0-1.334,0.419-2.381,1.258-3.144
					c0.838-0.762,1.848-1.144,3.03-1.144c1.144,0,2.134,0.382,2.973,1.144C3319.191,87.794,3319.611,88.842,3319.611,90.175z
					 M3318.868,128.819h-6.917V98.921h6.917V128.819z"/>
				<path fill="#4C1B1B" d="M3330.139,128.819V85.602l6.917-1.143v14.805c0.762-0.266,1.648-0.495,2.658-0.686
					c1.009-0.191,2.009-0.286,3.001-0.286c2.401,0,4.392,0.334,5.974,1c1.581,0.667,2.848,1.601,3.801,2.801
					c0.952,1.201,1.629,2.639,2.029,4.316c0.4,1.677,0.6,3.544,0.6,5.602v16.806h-6.917v-15.72c0-1.601-0.105-2.963-0.315-4.087
					c-0.209-1.123-0.553-2.038-1.029-2.744c-0.477-0.705-1.115-1.219-1.915-1.543c-0.801-0.324-1.792-0.486-2.973-0.486
					c-0.915,0-1.849,0.096-2.801,0.286c-0.953,0.191-1.658,0.362-2.115,0.514v23.78H3330.139z"/>
				<path fill="#4C1B1B" d="M3393.139,113.842c0,2.363-0.343,4.516-1.029,6.459c-0.686,1.943-1.658,3.601-2.915,4.973
					c-1.258,1.372-2.772,2.439-4.545,3.201c-1.772,0.762-3.726,1.144-5.859,1.144c-2.135,0-4.078-0.382-5.831-1.144
					c-1.753-0.762-3.258-1.829-4.516-3.201c-1.258-1.372-2.24-3.03-2.944-4.973c-0.705-1.944-1.057-4.096-1.057-6.459
					c0-2.363,0.352-4.507,1.057-6.431c0.705-1.924,1.696-3.573,2.973-4.945c1.276-1.372,2.791-2.43,4.544-3.173
					c1.752-0.743,3.677-1.114,5.774-1.114c2.095,0,4.03,0.372,5.802,1.114c1.772,0.743,3.287,1.801,4.544,3.173
					c1.258,1.372,2.238,3.02,2.944,4.945C3392.786,109.335,3393.139,111.479,3393.139,113.842z M3386.051,113.842
					c0-2.973-0.639-5.325-1.915-7.06c-1.277-1.733-3.058-2.601-5.344-2.601s-4.069,0.867-5.345,2.601
					c-1.277,1.735-1.915,4.087-1.915,7.06c0,3.011,0.638,5.393,1.915,7.145c1.276,1.753,3.058,2.63,5.345,2.63
					s4.067-0.876,5.344-2.63C3385.412,119.235,3386.051,116.853,3386.051,113.842z"/>
				<path fill="#4C1B1B" d="M3413.261,129.39c-2.058-0.039-3.764-0.267-5.116-0.686c-1.353-0.419-2.43-1.019-3.23-1.8
					c-0.8-0.781-1.363-1.753-1.686-2.915c-0.324-1.162-0.486-2.487-0.486-3.973V85.602l6.917-1.143V118.7
					c0,0.839,0.066,1.544,0.2,2.115c0.133,0.572,0.372,1.057,0.715,1.458c0.343,0.4,0.809,0.706,1.4,0.915
					c0.591,0.21,1.344,0.372,2.258,0.486L3413.261,129.39z"/>
				<path fill="#4C1B1B" d="M3449.337,113.842c0,2.363-0.343,4.516-1.029,6.459c-0.686,1.943-1.658,3.601-2.915,4.973
					c-1.258,1.372-2.772,2.439-4.545,3.201c-1.772,0.762-3.726,1.144-5.859,1.144c-2.135,0-4.078-0.382-5.831-1.144
					c-1.753-0.762-3.258-1.829-4.516-3.201c-1.258-1.372-2.24-3.03-2.944-4.973c-0.705-1.944-1.057-4.096-1.057-6.459
					c0-2.363,0.352-4.507,1.057-6.431c0.705-1.924,1.696-3.573,2.973-4.945c1.276-1.372,2.791-2.43,4.544-3.173
					c1.752-0.743,3.677-1.114,5.774-1.114c2.095,0,4.03,0.372,5.802,1.114c1.772,0.743,3.287,1.801,4.544,3.173
					c1.258,1.372,2.238,3.02,2.944,4.945C3448.984,109.335,3449.337,111.479,3449.337,113.842z M3442.248,113.842
					c0-2.973-0.639-5.325-1.915-7.06c-1.277-1.733-3.058-2.601-5.344-2.601c-2.286,0-4.069,0.867-5.345,2.601
					c-1.277,1.735-1.915,4.087-1.915,7.06c0,3.011,0.638,5.393,1.915,7.145c1.276,1.753,3.059,2.63,5.345,2.63
					c2.287,0,4.067-0.876,5.344-2.63C3441.61,119.235,3442.248,116.853,3442.248,113.842z"/>
				<path fill="#4C1B1B" d="M3483.88,125.789c0,4.764-1.21,8.251-3.63,10.461c-2.421,2.21-6.126,3.316-11.118,3.316
					c-1.829,0-3.611-0.153-5.344-0.457c-1.735-0.306-3.307-0.706-4.716-1.201l1.258-5.888c1.18,0.495,2.524,0.895,4.03,1.201
					c1.505,0.305,3.134,0.457,4.888,0.457c2.781,0,4.763-0.571,5.945-1.715c1.18-1.143,1.772-2.839,1.772-5.087v-1.144
					c-0.686,0.343-1.592,0.686-2.715,1.029c-1.125,0.343-2.411,0.515-3.859,0.515c-1.906,0-3.649-0.305-5.23-0.915
					c-1.582-0.609-2.935-1.505-4.058-2.687c-1.125-1.181-2.001-2.658-2.63-4.43c-0.629-1.772-0.943-3.82-0.943-6.145
					c0-2.172,0.333-4.173,1-6.002c0.666-1.829,1.638-3.392,2.915-4.688c1.277-1.295,2.83-2.305,4.659-3.029
					c1.829-0.724,3.906-1.087,6.231-1.087c2.248,0,4.382,0.172,6.402,0.515c2.02,0.343,3.734,0.705,5.145,1.086V125.789z
					 M3464.616,113.098c0,2.935,0.638,5.079,1.915,6.431c1.276,1.353,2.924,2.029,4.945,2.029c1.105,0,2.144-0.152,3.115-0.457
					c0.971-0.305,1.762-0.666,2.372-1.087v-15.491c-0.496-0.115-1.106-0.219-1.829-0.315c-0.724-0.094-1.639-0.143-2.744-0.143
					c-2.515,0-4.44,0.829-5.773,2.487C3465.282,108.211,3464.616,110.393,3464.616,113.098z"/>
				<path fill="#4C1B1B" d="M3505.179,98.179c2.287,0,4.211,0.286,5.774,0.857c1.562,0.572,2.81,1.372,3.744,2.401
					c0.933,1.029,1.601,2.278,2.001,3.744c0.4,1.467,0.6,3.078,0.6,4.83v18.121c-1.067,0.229-2.678,0.505-4.83,0.829
					c-2.154,0.323-4.583,0.486-7.289,0.486c-1.791,0-3.429-0.172-4.916-0.514c-1.487-0.343-2.754-0.895-3.802-1.658
					c-1.049-0.762-1.867-1.753-2.458-2.973c-0.591-1.219-0.886-2.724-0.886-4.516c0-1.715,0.333-3.162,1-4.344
					c0.666-1.18,1.572-2.143,2.715-2.887c1.144-0.743,2.467-1.276,3.973-1.6c1.505-0.324,3.077-0.486,4.716-0.486
					c0.762,0,1.562,0.049,2.401,0.143c0.838,0.096,1.733,0.257,2.687,0.486v-1.143c0-0.8-0.095-1.562-0.286-2.287
					c-0.191-0.724-0.524-1.362-1-1.915c-0.477-0.552-1.105-0.98-1.886-1.286c-0.781-0.305-1.763-0.457-2.944-0.457
					c-1.601,0-3.068,0.115-4.402,0.343c-1.334,0.229-2.421,0.496-3.258,0.8l-0.857-5.602c0.876-0.305,2.152-0.609,3.83-0.915
					C3501.482,98.331,3503.273,98.179,3505.179,98.179z M3505.751,123.96c2.134,0,3.753-0.115,4.859-0.343v-7.66
					c-0.382-0.115-0.934-0.229-1.658-0.343c-0.724-0.114-1.525-0.172-2.401-0.172c-0.763,0-1.534,0.058-2.315,0.172
					c-0.782,0.115-1.486,0.324-2.115,0.629c-0.629,0.306-1.135,0.734-1.515,1.286c-0.381,0.553-0.572,1.249-0.572,2.087
					c0,1.639,0.515,2.772,1.544,3.401C3502.607,123.645,3503.998,123.96,3505.751,123.96z"/>
				<path fill="#4C1B1B" d="M2957.322,179.488c-1.296-2.173-2.744-4.506-4.344-7.003c-1.601-2.496-3.258-5.011-4.973-7.545
					c-1.715-2.534-3.458-4.992-5.23-7.374c-1.772-2.381-3.458-4.525-5.059-6.431v28.353h-7.088v-39.615h5.888
					c1.524,1.601,3.163,3.497,4.916,5.688c1.753,2.192,3.516,4.469,5.288,6.831c1.772,2.363,3.487,4.736,5.145,7.117
					c1.658,2.382,3.134,4.602,4.43,6.66v-26.296h7.146v39.615H2957.322z"/>
				<path fill="#4C1B1B" d="M3002.424,164.511c0,2.363-0.343,4.515-1.029,6.459c-0.686,1.943-1.658,3.601-2.915,4.973
					c-1.258,1.372-2.772,2.439-4.545,3.201c-1.772,0.762-3.726,1.144-5.859,1.144c-2.135,0-4.078-0.382-5.831-1.144
					c-1.753-0.762-3.258-1.829-4.516-3.201c-1.258-1.372-2.24-3.03-2.944-4.973c-0.705-1.944-1.057-4.096-1.057-6.459
					c0-2.363,0.352-4.507,1.057-6.431c0.705-1.924,1.696-3.573,2.973-4.945c1.276-1.372,2.791-2.43,4.545-3.173
					c1.752-0.743,3.677-1.114,5.773-1.114c2.095,0,4.03,0.372,5.802,1.114c1.772,0.743,3.287,1.801,4.544,3.173
					c1.258,1.372,2.238,3.02,2.944,4.945C3002.071,160.004,3002.424,162.148,3002.424,164.511z M2995.335,164.511
					c0-2.973-0.639-5.325-1.915-7.06c-1.277-1.733-3.058-2.601-5.344-2.601c-2.286,0-4.069,0.867-5.345,2.601
					c-1.277,1.735-1.915,4.087-1.915,7.06c0,3.011,0.638,5.393,1.915,7.145c1.276,1.753,3.059,2.63,5.345,2.63
					c2.287,0,4.067-0.876,5.344-2.63C2994.697,169.904,2995.335,167.522,2995.335,164.511z"/>
				<path fill="#4C1B1B" d="M3019.336,179.488c-1.913-3.925-3.875-8.432-5.884-13.519c-2.01-5.088-3.836-10.547-5.481-16.378h7.377
					c0.421,1.678,0.908,3.478,1.463,5.402c0.555,1.924,1.147,3.849,1.779,5.773c0.632,1.925,1.282,3.793,1.952,5.603
					c0.67,1.81,1.292,3.44,1.866,4.887c0.573-1.448,1.187-3.077,1.836-4.887c0.65-1.81,1.292-3.678,1.923-5.603
					c0.63-1.924,1.233-3.849,1.808-5.773c0.573-1.924,1.071-3.725,1.492-5.402h7.147c-1.645,5.831-3.473,11.29-5.481,16.378
					c-2.01,5.087-3.971,9.594-5.884,13.519H3019.336z"/>
				<path fill="#4C1B1B" d="M3052.333,140.844c0,1.296-0.42,2.325-1.258,3.087c-0.839,0.763-1.829,1.144-2.973,1.144
					c-1.182,0-2.192-0.381-3.03-1.144c-0.838-0.762-1.258-1.791-1.258-3.087c0-1.334,0.419-2.381,1.258-3.144
					c0.838-0.762,1.848-1.144,3.03-1.144c1.143,0,2.134,0.382,2.973,1.144C3051.912,138.464,3052.333,139.511,3052.333,140.844z
					 M3051.589,179.488h-6.917V149.59h6.917V179.488z"/>
				<path fill="#4C1B1B" d="M3092.116,139.473c5.754,0,10.166,1.049,13.233,3.144c3.067,2.096,4.602,5.373,4.602,9.832
					c0,2.325-0.41,4.316-1.229,5.974c-0.82,1.658-2.01,3.011-3.573,4.059c-1.563,1.049-3.468,1.82-5.717,2.315
					c-2.249,0.496-4.821,0.743-7.717,0.743h-3.601v13.948h-7.203v-39.043c1.677-0.381,3.534-0.638,5.573-0.771
					C3088.524,139.539,3090.402,139.473,3092.116,139.473z M3092.631,145.704c-1.829,0-3.335,0.057-4.516,0.172v13.491h3.487
					c3.467,0,6.135-0.486,8.002-1.458c1.867-0.972,2.801-2.81,2.801-5.517c0-1.295-0.248-2.381-0.743-3.258
					c-0.496-0.876-1.182-1.562-2.058-2.058c-0.877-0.495-1.915-0.847-3.115-1.057
					C3095.289,145.809,3094.003,145.704,3092.631,145.704z"/>
				<path fill="#4C1B1B" d="M3128.22,148.848c2.287,0,4.211,0.286,5.774,0.857c1.562,0.572,2.81,1.372,3.744,2.401
					c0.933,1.029,1.601,2.278,2.001,3.744c0.4,1.467,0.6,3.078,0.6,4.83v18.121c-1.068,0.229-2.678,0.505-4.83,0.829
					c-2.153,0.323-4.583,0.486-7.289,0.486c-1.791,0-3.429-0.172-4.916-0.514c-1.487-0.343-2.754-0.895-3.802-1.658
					c-1.049-0.762-1.867-1.753-2.458-2.973c-0.591-1.219-0.886-2.724-0.886-4.516c0-1.715,0.333-3.162,1-4.344
					c0.666-1.18,1.572-2.143,2.715-2.887c1.144-0.743,2.467-1.276,3.973-1.6c1.505-0.324,3.077-0.486,4.716-0.486
					c0.762,0,1.562,0.049,2.401,0.143c0.838,0.096,1.733,0.257,2.687,0.486v-1.143c0-0.8-0.096-1.562-0.286-2.287
					c-0.191-0.724-0.524-1.362-1-1.915c-0.477-0.552-1.106-0.98-1.886-1.286c-0.781-0.305-1.763-0.457-2.944-0.457
					c-1.601,0-3.068,0.115-4.401,0.343c-1.335,0.229-2.421,0.496-3.259,0.8l-0.857-5.602c0.876-0.305,2.152-0.609,3.83-0.915
					C3124.524,149,3126.314,148.848,3128.22,148.848z M3128.792,174.629c2.134,0,3.753-0.115,4.859-0.343v-7.66
					c-0.382-0.115-0.935-0.229-1.658-0.343c-0.724-0.114-1.525-0.172-2.401-0.172c-0.763,0-1.534,0.058-2.315,0.172
					c-0.782,0.115-1.486,0.324-2.115,0.629c-0.629,0.306-1.135,0.734-1.515,1.286c-0.381,0.553-0.572,1.249-0.572,2.087
					c0,1.639,0.515,2.772,1.544,3.401S3127.039,174.629,3128.792,174.629z"/>
				<path fill="#4C1B1B" d="M3172.214,154.45c-0.762,0.8-1.763,1.925-3.001,3.373c-1.239,1.449-2.564,3.058-3.974,4.831
					c-1.41,1.772-2.83,3.621-4.258,5.544c-1.429,1.925-2.716,3.764-3.859,5.517h15.435v5.774h-23.781V175.2
					c0.838-1.524,1.886-3.181,3.144-4.973c1.258-1.791,2.553-3.592,3.887-5.402c1.334-1.81,2.658-3.534,3.973-5.173
					c1.315-1.638,2.487-3.067,3.516-4.287h-13.776v-5.774h22.694V154.45z"/>
				<path fill="#4C1B1B" d="M3192.215,148.848c2.286,0,4.211,0.286,5.774,0.857c1.562,0.572,2.81,1.372,3.744,2.401
					c0.933,1.029,1.601,2.278,2.001,3.744c0.4,1.467,0.6,3.078,0.6,4.83v18.121c-1.067,0.229-2.678,0.505-4.83,0.829
					c-2.154,0.323-4.583,0.486-7.289,0.486c-1.792,0-3.43-0.172-4.916-0.514c-1.487-0.343-2.754-0.895-3.802-1.658
					c-1.049-0.762-1.867-1.753-2.458-2.973c-0.591-1.219-0.886-2.724-0.886-4.516c0-1.715,0.333-3.162,1-4.344
					c0.666-1.18,1.572-2.143,2.715-2.887c1.143-0.743,2.467-1.276,3.973-1.6c1.505-0.324,3.077-0.486,4.716-0.486
					c0.762,0,1.562,0.049,2.401,0.143c0.838,0.096,1.733,0.257,2.687,0.486v-1.143c0-0.8-0.095-1.562-0.286-2.287
					c-0.191-0.724-0.524-1.362-1-1.915c-0.477-0.552-1.105-0.98-1.886-1.286c-0.781-0.305-1.763-0.457-2.944-0.457
					c-1.601,0-3.068,0.115-4.402,0.343c-1.335,0.229-2.421,0.496-3.258,0.8l-0.857-5.602c0.876-0.305,2.152-0.609,3.83-0.915
					C3188.519,149,3190.309,148.848,3192.215,148.848z M3192.787,174.629c2.134,0,3.753-0.115,4.859-0.343v-7.66
					c-0.382-0.115-0.935-0.229-1.658-0.343c-0.724-0.114-1.525-0.172-2.401-0.172c-0.763,0-1.534,0.058-2.315,0.172
					c-0.782,0.115-1.486,0.324-2.115,0.629c-0.629,0.306-1.135,0.734-1.515,1.286c-0.381,0.553-0.572,1.249-0.572,2.087
					c0,1.639,0.515,2.772,1.544,3.401C3189.643,174.314,3191.034,174.629,3192.787,174.629z"/>
				<path fill="#4C1B1B" d="M3232.379,155.822c-0.572-0.191-1.363-0.391-2.373-0.6c-1.01-0.209-2.182-0.315-3.515-0.315
					c-0.763,0-1.572,0.077-2.43,0.229c-0.857,0.153-1.458,0.286-1.8,0.4v23.952h-6.917V151.02c1.334-0.495,3.001-0.962,5.002-1.4
					c2.001-0.438,4.22-0.658,6.66-0.658c0.457,0,0.99,0.029,1.6,0.086c0.609,0.057,1.22,0.134,1.829,0.229
					c0.609,0.096,1.201,0.21,1.772,0.343c0.572,0.134,1.029,0.257,1.372,0.371L3232.379,155.822z"/>
			</g>
		</g>
	</g>
</g>
<g>
	<g>
		<path fill="#FFFFFF" d="M3261.382,1572.62c-0.086,4.864-1.585,8.865-4.578,12.227c-2.927,3.264-6.315,4.849-10.356,4.849
			c-4.056,0-7.429-1.59-10.31-4.866c-3.008-3.411-4.502-7.431-4.558-12.265v-26.067h-9.227v26.09
			c0.071,7.302,2.436,13.617,7.019,18.752c4.664,5.312,10.422,8.006,17.111,8.006c6.654,0,12.397-2.681,17.066-7.961
			c4.578-5.132,6.953-11.432,7.059-18.754v-26.133h-9.227V1572.62z"/>
		<path fill="#FFFFFF" d="M3337.276,1549.032c-3.347-1.638-6.75-2.469-10.113-2.469h-17.628v52.362h9.358v-12.87h8.27
			c3.332,0,6.73-0.818,10.113-2.433c6.872-3.35,10.361-9.168,10.361-17.296S3344.148,1552.38,3337.276,1549.032z M3318.894,1555.889
			h8.27c2.031,0,3.95,0.468,5.879,1.431c3.484,1.747,5.11,4.608,5.11,9.006c0,4.403-1.631,7.252-5.16,8.976
			c-1.879,0.955-3.793,1.433-5.829,1.461h-8.27V1555.889z"/>
		<polygon fill="#FFFFFF" points="3421.48,1580.665 3382.969,1542.381 3382.969,1598.925 3392.327,1598.925 3392.327,1564.824 
			3430.839,1602.493 3430.839,1546.564 3421.48,1546.564 		"/>
		<path fill="#FFFFFF" d="M3497.506,1549.032c-3.342-1.638-6.745-2.469-10.113-2.469h-17.633v52.362h9.358v-12.87h8.274
			c3.337,0,6.73-0.818,10.108-2.433c6.877-3.347,10.366-9.166,10.366-17.296S3504.378,1552.377,3497.506,1549.032z
			 M3479.119,1555.889h8.274c2.026,0,3.945,0.468,5.874,1.431c3.489,1.747,5.115,4.608,5.115,9.006c0,4.403-1.631,7.252-5.155,8.976
			c-1.889,0.955-3.803,1.433-5.834,1.461h-8.274V1555.889z"/>
		<g>
			<g>
				<circle fill="#FFFFFF" cx="3246.283" cy="1631.515" r="6.11"/>
				<circle fill="#FFFFFF" cx="3325.501" cy="1631.515" r="6.11"/>
				<circle fill="#FFFFFF" cx="3404.72" cy="1631.515" r="6.11"/>
				<circle fill="#FFFFFF" cx="3483.938" cy="1631.515" r="6.11"/>
			</g>
		</g>
		<path fill="#FFFFFF" d="M3085.504,1509.914c-13.694,14.037-14.492,27.921-18.568,53.588
			c-4.076,25.666-10.854,19.685-26.837,22.349c-4.256,0.709-7.825,2.588-10.799,4.942v-57.588c0-6.179,5.009-11.188,11.188-11.188
			h6.993c6.129,0,11.099-4.969,11.099-11.099s-4.969-11.099-11.099-11.099h-58.558c-6.13,0-11.099,4.969-11.099,11.099
			s4.969,11.099,11.099,11.099h6.993c6.179,0,11.187,5.009,11.187,11.188v57.588c-2.974-2.354-6.543-4.233-10.799-4.942
			c-15.984-2.664-22.761,3.317-26.837-22.349c-4.076-25.667-4.874-39.551-18.568-53.588c-22.06-22.613-47.286-1.332-22.644,13.32
			c24.643,14.652,13.654,58.275,30.636,75.258c16.983,16.983,48.212-3.996,48.212,29.97v18.338c0,6.179-5.009,11.188-11.187,11.188
			h-6.993c-6.13,0-11.099,4.969-11.099,11.099c0,6.13,4.969,11.099,11.099,11.099h58.558c6.129,0,11.099-4.969,11.099-11.099
			c0-6.13-4.969-11.099-11.099-11.099h-6.993c-6.179,0-11.188-5.009-11.188-11.188v-18.338c0-33.966,31.229-12.987,48.212-29.97
			c16.982-16.983,5.994-60.606,30.636-75.258C3132.79,1508.582,3107.564,1487.301,3085.504,1509.914z"/>
		<g>
			<g>
				<path fill="#FFFFFF" d="M3163.248,1643.39c-3.066,0-5.553-2.486-5.553-5.553v-95.456c0-3.068,2.487-5.553,5.553-5.553
					s5.553,2.486,5.553,5.553v95.456C3168.802,1640.905,3166.314,1643.39,3163.248,1643.39z"/>
			</g>
		</g>
	</g>
</g>
<rect x="3712.985" y="1090.003" fill="#4C1B1B" width="1000" height="1000"/>
<g>
	<g>
		<path fill="#FFFFFF" d="M4109.257,1704.57c-0.086,4.864-1.585,8.865-4.578,12.227c-2.927,3.264-6.315,4.849-10.356,4.849
			c-4.056,0-7.429-1.59-10.31-4.866c-3.008-3.411-4.502-7.431-4.558-12.265v-26.067h-9.227v26.09
			c0.071,7.302,2.436,13.617,7.019,18.752c4.664,5.312,10.422,8.006,17.111,8.006c6.654,0,12.397-2.681,17.066-7.961
			c4.578-5.132,6.953-11.432,7.059-18.755v-26.133h-9.227V1704.57z"/>
		<path fill="#FFFFFF" d="M4185.151,1680.982c-3.347-1.638-6.75-2.469-10.113-2.469h-17.627v52.362h9.358v-12.87h8.27
			c3.332,0,6.73-0.818,10.113-2.433c6.872-3.35,10.361-9.168,10.361-17.296C4195.512,1690.148,4192.023,1684.329,4185.151,1680.982z
			 M4166.769,1687.839h8.27c2.031,0,3.95,0.469,5.879,1.431c3.484,1.747,5.109,4.608,5.109,9.006c0,4.403-1.63,7.252-5.16,8.976
			c-1.878,0.955-3.793,1.433-5.829,1.461h-8.27V1687.839z"/>
		<polygon fill="#FFFFFF" points="4269.355,1712.614 4230.843,1674.33 4230.843,1730.875 4240.202,1730.875 4240.202,1696.774 
			4278.713,1734.443 4278.713,1678.513 4269.355,1678.513 		"/>
		<path fill="#FFFFFF" d="M4345.381,1680.982c-3.342-1.638-6.745-2.469-10.113-2.469h-17.633v52.362h9.358v-12.87h8.274
			c3.337,0,6.73-0.818,10.107-2.433c6.877-3.347,10.366-9.166,10.366-17.296S4352.252,1684.327,4345.381,1680.982z
			 M4326.994,1687.839h8.274c2.025,0,3.945,0.469,5.874,1.431c3.489,1.747,5.115,4.608,5.115,9.006c0,4.403-1.63,7.252-5.155,8.976
			c-1.889,0.955-3.803,1.433-5.833,1.461h-8.274V1687.839z"/>
		<g>
			<g>
				<circle fill="#FFFFFF" cx="4094.158" cy="1763.464" r="6.11"/>
				<circle fill="#FFFFFF" cx="4173.376" cy="1763.464" r="6.11"/>
				<circle fill="#FFFFFF" cx="4252.595" cy="1763.464" r="6.11"/>
				<circle fill="#FFFFFF" cx="4331.813" cy="1763.464" r="6.11"/>
			</g>
		</g>
		<path fill="#FFFFFF" d="M4280.288,1420.526c-13.693,14.037-14.492,27.921-18.567,53.588
			c-4.077,25.666-10.854,19.685-26.837,22.349c-4.256,0.709-7.825,2.588-10.799,4.942v-57.588c0-6.179,5.009-11.188,11.188-11.188
			h6.993c6.129,0,11.099-4.969,11.099-11.099c0-6.13-4.969-11.099-11.099-11.099h-58.558c-6.13,0-11.099,4.969-11.099,11.099
			c0,6.13,4.969,11.099,11.099,11.099h6.992c6.179,0,11.188,5.009,11.188,11.188v57.588c-2.974-2.354-6.543-4.233-10.799-4.942
			c-15.983-2.664-22.761,3.317-26.837-22.349c-4.076-25.666-4.874-39.551-18.568-53.588c-22.06-22.613-47.286-1.332-22.644,13.32
			c24.643,14.652,13.653,58.275,30.636,75.258c16.983,16.983,48.212-3.996,48.212,29.97v18.338c0,6.179-5.008,11.188-11.188,11.188
			h-6.992c-6.13,0-11.099,4.969-11.099,11.099c0,6.13,4.969,11.099,11.099,11.099h58.558c6.129,0,11.099-4.969,11.099-11.099
			c0-6.13-4.969-11.099-11.099-11.099h-6.993c-6.179,0-11.188-5.009-11.188-11.188v-18.338c0-33.966,31.229-12.987,48.212-29.97
			c16.982-16.983,5.994-60.606,30.636-75.258C4327.574,1419.194,4302.348,1397.913,4280.288,1420.526z"/>
		<g>
			<g>
				<path fill="#FFFFFF" d="M4159.704,1632.061c0-3.066,2.485-5.553,5.553-5.553h95.456c3.068,0,5.554,2.487,5.554,5.553
					c0,3.066-2.486,5.553-5.554,5.553h-95.456C4162.189,1637.614,4159.704,1635.127,4159.704,1632.061z"/>
			</g>
		</g>
	</g>
</g>
<g>
	<g>
		<path fill="#4C1B1B" d="M5109.257,1704.57c-0.086,4.864-1.585,8.865-4.578,12.227c-2.927,3.264-6.315,4.849-10.356,4.849
			c-4.056,0-7.429-1.59-10.31-4.866c-3.008-3.411-4.502-7.431-4.558-12.265v-26.067h-9.227v26.09
			c0.071,7.302,2.436,13.617,7.019,18.752c4.664,5.312,10.421,8.006,17.111,8.006c6.654,0,12.396-2.681,17.065-7.961
			c4.578-5.132,6.953-11.432,7.059-18.755v-26.133h-9.227V1704.57z"/>
		<path fill="#4C1B1B" d="M5185.151,1680.982c-3.347-1.638-6.75-2.469-10.113-2.469h-17.627v52.362h9.358v-12.87h8.27
			c3.332,0,6.73-0.818,10.113-2.433c6.872-3.35,10.361-9.168,10.361-17.296C5195.512,1690.148,5192.023,1684.329,5185.151,1680.982z
			 M5166.769,1687.839h8.27c2.031,0,3.95,0.469,5.879,1.431c3.484,1.747,5.109,4.608,5.109,9.006c0,4.403-1.63,7.252-5.16,8.976
			c-1.878,0.955-3.793,1.433-5.829,1.461h-8.27V1687.839z"/>
		<polygon fill="#4C1B1B" points="5269.355,1712.614 5230.843,1674.33 5230.843,1730.875 5240.202,1730.875 5240.202,1696.774 
			5278.713,1734.443 5278.713,1678.513 5269.355,1678.513 		"/>
		<path fill="#4C1B1B" d="M5345.381,1680.982c-3.342-1.638-6.745-2.469-10.113-2.469h-17.633v52.362h9.358v-12.87h8.274
			c3.337,0,6.73-0.818,10.107-2.433c6.877-3.347,10.366-9.166,10.366-17.296S5352.252,1684.327,5345.381,1680.982z
			 M5326.994,1687.839h8.274c2.025,0,3.945,0.469,5.874,1.431c3.489,1.747,5.115,4.608,5.115,9.006c0,4.403-1.63,7.252-5.155,8.976
			c-1.889,0.955-3.803,1.433-5.833,1.461h-8.274V1687.839z"/>
		<g>
			<circle fill="#F6E497" cx="5094.158" cy="1763.464" r="6.11"/>
			<circle fill="#F6E497" cx="5173.376" cy="1763.464" r="6.11"/>
			<circle fill="#F6E497" cx="5252.595" cy="1763.464" r="6.11"/>
			<circle fill="#F6E497" cx="5331.813" cy="1763.464" r="6.11"/>
		</g>
		<path fill="#4C1B1B" d="M5280.288,1420.526c-13.693,14.037-14.492,27.921-18.567,53.588
			c-4.077,25.666-10.854,19.685-26.837,22.349c-4.256,0.709-7.825,2.588-10.799,4.942v-57.588c0-6.179,5.009-11.188,11.188-11.188
			h6.993c6.129,0,11.099-4.969,11.099-11.099c0-6.13-4.969-11.099-11.099-11.099h-58.558c-6.13,0-11.099,4.969-11.099,11.099
			c0,6.13,4.969,11.099,11.099,11.099h6.992c6.179,0,11.188,5.009,11.188,11.188v57.588c-2.974-2.354-6.543-4.233-10.799-4.942
			c-15.983-2.664-22.761,3.317-26.837-22.349c-4.076-25.666-4.874-39.551-18.568-53.588c-22.06-22.613-47.286-1.332-22.644,13.32
			c24.643,14.652,13.653,58.275,30.636,75.258c16.983,16.983,48.212-3.996,48.212,29.97v18.338c0,6.179-5.008,11.188-11.188,11.188
			h-6.992c-6.13,0-11.099,4.969-11.099,11.099c0,6.13,4.969,11.099,11.099,11.099h58.558c6.129,0,11.099-4.969,11.099-11.099
			c0-6.13-4.969-11.099-11.099-11.099h-6.993c-6.179,0-11.188-5.009-11.188-11.188v-18.338c0-33.966,31.229-12.987,48.212-29.97
			c16.982-16.983,5.994-60.606,30.636-75.258C5327.574,1419.194,5302.348,1397.913,5280.288,1420.526z"/>
		<g>
			<path fill="#BD8D46" d="M5159.704,1632.061c0-3.066,2.485-5.553,5.553-5.553h95.456c3.068,0,5.554,2.487,5.554,5.553
				c0,3.066-2.486,5.553-5.554,5.553h-95.456C5162.189,1637.614,5159.704,1635.127,5159.704,1632.061z"/>
		</g>
	</g>
</g>
<g>
	<g>
		<path fill="#FFFFFF" d="M7328.698,1452.307c-23.543,24.134-24.916,48.005-31.923,92.133c-7.009,44.128-18.66,33.845-46.141,38.425
			c-7.317,1.219-13.453,4.45-18.566,8.497v-99.011c0-10.623,8.611-19.235,19.234-19.235h12.022c10.539,0,19.083-8.543,19.083-19.082
			c0-10.539-8.544-19.083-19.083-19.083h-100.678c-10.538,0-19.082,8.544-19.082,19.083c0,10.539,8.544,19.082,19.082,19.082h12.022
			c10.623,0,19.234,8.612,19.234,19.235v99.011c-5.113-4.047-11.249-7.277-18.566-8.497c-27.481-4.58-39.133,5.703-46.141-38.425
			c-7.008-44.128-8.379-67.999-31.924-92.133c-37.927-38.879-81.298-2.29-38.932,22.901
			c42.368,25.191,23.475,100.192,52.672,129.391c29.2,29.199,82.891-6.87,82.891,51.527v31.529c0,10.623-8.611,19.235-19.234,19.235
			h-12.022c-10.538,0-19.082,8.543-19.082,19.082c0,10.539,8.544,19.082,19.082,19.082h100.678c10.539,0,19.083-8.543,19.083-19.082
			c0-10.539-8.544-19.082-19.083-19.082h-12.022c-10.623,0-19.234-8.612-19.234-19.235v-31.529
			c0-58.397,53.691-22.328,82.891-51.527c29.198-29.199,10.305-104.2,52.672-129.391
			C7409.997,1450.017,7366.626,1413.428,7328.698,1452.307z"/>
	</g>
</g>
<g>
	<g>
		<path fill="#4C1B1B" d="M6328.698,1452.307c-23.543,24.134-24.916,48.005-31.923,92.133c-7.009,44.128-18.66,33.845-46.141,38.425
			c-7.317,1.219-13.453,4.45-18.566,8.497v-99.011c0-10.623,8.611-19.235,19.234-19.235h12.022c10.539,0,19.083-8.543,19.083-19.082
			c0-10.539-8.544-19.083-19.083-19.083h-100.678c-10.538,0-19.082,8.544-19.082,19.083c0,10.539,8.544,19.082,19.082,19.082h12.022
			c10.623,0,19.234,8.612,19.234,19.235v99.011c-5.113-4.047-11.249-7.277-18.566-8.497c-27.481-4.58-39.133,5.703-46.141-38.425
			c-7.008-44.128-8.379-67.999-31.924-92.133c-37.927-38.879-81.298-2.29-38.932,22.901
			c42.368,25.191,23.475,100.192,52.672,129.391c29.2,29.199,82.891-6.87,82.891,51.527v31.529c0,10.623-8.611,19.235-19.234,19.235
			h-12.022c-10.538,0-19.082,8.543-19.082,19.082c0,10.539,8.544,19.082,19.082,19.082h100.678c10.539,0,19.083-8.543,19.083-19.082
			c0-10.539-8.544-19.082-19.083-19.082h-12.022c-10.623,0-19.234-8.612-19.234-19.235v-31.529
			c0-58.397,53.691-22.328,82.891-51.527c29.198-29.199,10.305-104.2,52.672-129.391
			C6409.997,1450.017,6366.626,1413.428,6328.698,1452.307z"/>
	</g>
</g>
<g>
	<g>
		<g>
			<path fill="#FFFFFF" d="M114.71,126.198c-23.447-3.908-33.388,4.866-39.367-32.784c-5.979-37.65-7.15-58.016-27.237-78.607
				C15.747-18.363-21.257,12.854,14.89,34.347s20.027,85.482,44.939,110.395s70.721-5.862,70.721,43.962h4.504l12.735-30.794
				C147.789,157.91,138.157,130.106,114.71,126.198z"/>
			<path fill="#FFFFFF" d="M245.556,14.808c-20.087,20.591-21.258,40.957-27.237,78.607c-5.979,37.65-15.92,28.876-39.367,32.784
				c-23.447,3.908-33.079,31.712-33.079,31.712l12.735,30.794h4.504c0-49.824,45.809-19.05,70.721-43.962
				s8.792-88.902,44.939-110.395S277.916-18.363,245.556,14.808z"/>
		</g>
		<path fill="#FFFFFF" d="M189.78,232.014h-10.257c-9.063,0-16.411-7.347-16.411-16.411V48.972c0-9.063,7.347-16.411,16.411-16.411
			h0h10.257c8.992,0,16.281-7.289,16.281-16.281C206.061,7.289,198.772,0,189.78,0h-85.897c-8.992,0-16.281,7.289-16.281,16.281
			c0,8.992,7.289,16.281,16.281,16.281h10.257c9.063,0,16.411,7.347,16.411,16.411v166.631c0,9.063-7.347,16.411-16.411,16.411h0
			h-10.257c-8.992,0-16.281,7.289-16.281,16.281c0,8.992,7.289,16.281,16.281,16.281h85.897c8.992,0,16.281-7.289,16.281-16.281
			C206.061,239.303,198.772,232.014,189.78,232.014z"/>
	</g>
	<g>
		<path fill="#FFFFFF" d="M359.598,210.601c-4.497,0-8.146-3.646-8.146-8.146V62.433c0-4.5,3.649-8.146,8.146-8.146
			s8.146,3.646,8.146,8.146v140.022C367.744,206.955,364.095,210.601,359.598,210.601z"/>
	</g>
	<g>
		<circle fill="#FFFFFF" cx="1048.07" cy="176.514" r="8.962"/>
		<circle fill="#FFFFFF" cx="1164.274" cy="176.514" r="8.962"/>
		<circle fill="#FFFFFF" cx="1280.478" cy="176.514" r="8.962"/>
		<circle fill="#FFFFFF" cx="1396.681" cy="176.514" r="8.962"/>
	</g>
	<g>
		<path fill="#FFFFFF" d="M479.121,121.99c-4.484,0-8.336-0.648-11.557-1.942c-3.22-1.293-5.889-3.109-8.004-5.446
			c-2.117-2.336-3.68-5.083-4.689-8.241c-1.011-3.157-1.515-6.631-1.515-10.42V54.926h12.03v39.879c0,2.969,0.332,5.51,0.995,7.625
			c0.662,2.116,1.61,3.836,2.841,5.162c1.231,1.326,2.683,2.306,4.358,2.937c1.672,0.632,3.552,0.947,5.636,0.947
			s3.979-0.315,5.684-0.947c1.705-0.631,3.173-1.611,4.404-2.937c1.232-1.326,2.179-3.046,2.842-5.162
			c0.663-2.115,0.995-4.656,0.995-7.625V54.926h12.03v41.016c0,3.789-0.521,7.263-1.563,10.42c-1.042,3.158-2.621,5.905-4.736,8.241
			c-2.116,2.337-4.816,4.153-8.098,5.446C487.488,121.342,483.604,121.99,479.121,121.99z"/>
		<path fill="#FFFFFF" d="M566.265,119.054c-2.273,0.696-5.131,1.325-8.572,1.894c-3.443,0.569-7.056,0.853-10.845,0.853
			c-3.917,0-7.421-0.601-10.515-1.8c-3.094-1.198-5.731-2.92-7.909-5.162c-2.178-2.24-3.853-4.957-5.021-8.145
			c-1.169-3.189-1.752-6.773-1.752-10.752c0-3.915,0.489-7.467,1.469-10.656c0.978-3.188,2.415-5.92,4.309-8.194
			c1.895-2.273,4.199-4.026,6.915-5.257c2.715-1.232,5.84-1.848,9.378-1.848c2.399,0,4.514,0.284,6.346,0.853
			c1.831,0.569,3.41,1.2,4.736,1.894V48.959l11.461-1.894V119.054z M533.397,95.657c0,5.053,1.198,9.015,3.599,11.888
			c2.399,2.874,5.714,4.31,9.946,4.31c1.831,0,3.393-0.079,4.689-0.237c1.293-0.157,2.352-0.332,3.173-0.521V82.68
			c-1.01-0.694-2.353-1.34-4.026-1.941c-1.674-0.599-3.457-0.9-5.351-0.9c-4.169,0-7.216,1.421-9.141,4.263
			C534.358,86.943,533.397,90.796,533.397,95.657z"/>
		<path fill="#FFFFFF" d="M613.124,81.355c-0.947-0.316-2.259-0.647-3.931-0.995c-1.674-0.346-3.616-0.521-5.826-0.521
			c-1.264,0-2.604,0.128-4.026,0.379c-1.421,0.254-2.415,0.474-2.983,0.663v39.689h-11.462V73.397c2.21-0.82,4.973-1.594,8.288-2.32
			c3.316-0.725,6.993-1.09,11.036-1.09c0.758,0,1.641,0.048,2.652,0.143c1.01,0.094,2.021,0.222,3.031,0.379
			c1.01,0.158,1.989,0.347,2.937,0.569s1.705,0.426,2.273,0.615L613.124,81.355z"/>
		<path fill="#FFFFFF" d="M669.143,119.054c-2.212,0.568-5.085,1.152-8.62,1.752c-3.538,0.599-7.421,0.899-11.651,0.899
			c-3.979,0-7.31-0.568-9.993-1.705c-2.685-1.136-4.832-2.715-6.441-4.735c-1.611-2.021-2.764-4.436-3.457-7.247
			c-0.695-2.809-1.042-5.888-1.042-9.236V71.029H639.4v25.954c0,5.305,0.772,9.094,2.321,11.367c1.547,2.274,4.246,3.41,8.098,3.41
			c1.388,0,2.857-0.062,4.405-0.189c1.547-0.126,2.7-0.284,3.457-0.474V71.029h11.462V119.054z"/>
		<path fill="#FFFFFF" d="M723.324,79.081c-1.263,1.326-2.921,3.19-4.972,5.588c-2.053,2.401-4.248,5.068-6.585,8.005
			c-2.337,2.936-4.689,6-7.056,9.187c-2.368,3.19-4.5,6.238-6.394,9.141h25.577v9.567h-39.405v-7.104
			c1.388-2.525,3.126-5.272,5.21-8.241c2.084-2.967,4.231-5.951,6.441-8.951c2.21-2.999,4.405-5.856,6.583-8.572
			c2.179-2.715,4.12-5.083,5.826-7.105H685.72v-9.567h37.604V79.081z M704.522,65.062L690.645,51.8l4.546-5.02l9.331,7.672
			l9.424-7.672l4.452,5.02L704.522,65.062z"/>
		<path fill="#FFFFFF" d="M735.818,96.036c0-4.357,0.647-8.177,1.942-11.461c1.294-3.283,3.015-6.015,5.162-8.194
			c2.146-2.178,4.609-3.82,7.389-4.925c2.778-1.104,5.619-1.658,8.524-1.658c6.82,0,12.14,2.116,15.961,6.346
			c3.82,4.232,5.731,10.547,5.731,18.945c0,0.632-0.017,1.342-0.047,2.131c-0.033,0.79-0.081,1.5-0.143,2.131h-32.679
			c0.315,3.979,1.72,7.057,4.215,9.236c2.494,2.178,6.11,3.268,10.846,3.268c2.778,0,5.319-0.252,7.625-0.759
			c2.304-0.505,4.12-1.042,5.447-1.61l1.515,9.377c-0.632,0.317-1.5,0.648-2.604,0.995c-1.106,0.347-2.368,0.663-3.789,0.947
			c-1.421,0.284-2.953,0.52-4.595,0.71c-1.643,0.189-3.315,0.284-5.02,0.284c-4.358,0-8.146-0.648-11.368-1.942
			c-3.22-1.294-5.873-3.093-7.957-5.399c-2.084-2.304-3.631-5.02-4.641-8.146C736.323,103.188,735.818,99.763,735.818,96.036z
			 M769.066,90.922c0-1.578-0.221-3.079-0.663-4.5c-0.442-1.421-1.089-2.652-1.941-3.693c-0.853-1.042-1.895-1.862-3.126-2.464
			c-1.232-0.599-2.7-0.899-4.405-0.899c-1.769,0-3.316,0.332-4.642,0.995c-1.326,0.663-2.448,1.532-3.363,2.604
			c-0.916,1.074-1.626,2.306-2.131,3.694c-0.506,1.39-0.852,2.811-1.042,4.263H769.066z"/>
		<path fill="#FFFFFF" d="M796.715,72.64c2.21-0.631,5.083-1.231,8.62-1.8c3.536-0.569,7.451-0.853,11.746-0.853
			c4.04,0,7.419,0.554,10.135,1.658c2.715,1.106,4.878,2.652,6.489,4.642c1.611,1.989,2.747,4.39,3.41,7.199
			c0.663,2.811,0.995,5.889,0.995,9.236v27.848h-11.461V94.521c0-2.652-0.175-4.91-0.521-6.773
			c-0.347-1.862-0.916-3.378-1.705-4.546c-0.79-1.168-1.863-2.02-3.22-2.557c-1.359-0.536-3.016-0.806-4.973-0.806
			c-1.453,0-2.969,0.094-4.547,0.284c-1.579,0.19-2.747,0.348-3.505,0.473v39.974h-11.462V72.64z"/>
		<path fill="#FFFFFF" d="M849.712,138.188c-0.821,0-1.973-0.08-3.457-0.236c-1.484-0.158-2.794-0.459-3.932-0.9l1.516-9.377
			c1.389,0.441,3.064,0.663,5.02,0.663c2.653,0,4.514-0.774,5.589-2.321c1.073-1.549,1.61-3.869,1.61-6.962V71.029h11.462v48.214
			c0,6.441-1.532,11.208-4.595,14.303C859.862,136.64,855.457,138.188,849.712,138.188z M868.751,56.537
			c0,2.148-0.695,3.853-2.084,5.115c-1.389,1.264-3.031,1.895-4.925,1.895c-1.958,0-3.632-0.631-5.021-1.895
			c-1.389-1.262-2.084-2.967-2.084-5.115c0-2.21,0.695-3.945,2.084-5.21c1.388-1.262,3.063-1.895,5.021-1.895
			c1.894,0,3.536,0.633,4.925,1.895C868.056,52.591,868.751,54.327,868.751,56.537z"/>
		<path fill="#FFFFFF" d="M883.508,96.036c0-4.357,0.647-8.177,1.942-11.461c1.294-3.283,3.015-6.015,5.162-8.194
			c2.146-2.178,4.609-3.82,7.389-4.925c2.778-1.104,5.619-1.658,8.524-1.658c6.82,0,12.14,2.116,15.961,6.346
			c3.82,4.232,5.731,10.547,5.731,18.945c0,0.632-0.017,1.342-0.047,2.131c-0.033,0.79-0.081,1.5-0.143,2.131h-32.679
			c0.315,3.979,1.72,7.057,4.215,9.236c2.494,2.178,6.11,3.268,10.846,3.268c2.778,0,5.319-0.252,7.625-0.759
			c2.304-0.505,4.12-1.042,5.447-1.61l1.515,9.377c-0.632,0.317-1.5,0.648-2.604,0.995c-1.106,0.347-2.368,0.663-3.789,0.947
			c-1.421,0.284-2.953,0.52-4.595,0.71c-1.643,0.189-3.315,0.284-5.02,0.284c-4.358,0-8.146-0.648-11.368-1.942
			c-3.22-1.294-5.873-3.093-7.957-5.399c-2.084-2.304-3.631-5.02-4.641-8.146C884.013,103.188,883.508,99.763,883.508,96.036z
			 M916.756,90.922c0-1.578-0.221-3.079-0.663-4.5c-0.442-1.421-1.089-2.652-1.941-3.693c-0.853-1.042-1.895-1.862-3.126-2.464
			c-1.232-0.599-2.7-0.899-4.405-0.899c-1.769,0-3.316,0.332-4.642,0.995s-2.448,1.532-3.363,2.604
			c-0.916,1.074-1.626,2.306-2.131,3.694c-0.506,1.39-0.852,2.811-1.042,4.263H916.756z"/>
		<path fill="#FFFFFF" d="M992.913,54.264c9.535,0,16.845,1.737,21.928,5.21c5.083,3.473,7.625,8.904,7.625,16.292
			c0,3.853-0.679,7.152-2.037,9.899c-1.359,2.747-3.331,4.989-5.92,6.726c-2.59,1.737-5.747,3.016-9.473,3.836
			c-3.726,0.821-7.989,1.232-12.787,1.232h-5.967v23.112h-11.935V55.873c2.778-0.631,5.856-1.057,9.236-1.278
			C986.96,54.374,990.071,54.264,992.913,54.264z M993.766,64.588c-3.031,0-5.527,0.094-7.483,0.284v22.354h5.778
			c5.745,0,10.166-0.806,13.261-2.415c3.093-1.611,4.642-4.657,4.642-9.141c0-2.146-0.411-3.945-1.232-5.399
			c-0.822-1.451-1.958-2.589-3.41-3.41c-1.453-0.82-3.173-1.404-5.162-1.752C998.169,64.763,996.038,64.588,993.766,64.588z"/>
		<path fill="#FFFFFF" d="M1050.578,112.329c3.031,0,5.241-0.363,6.631-1.089c1.388-0.725,2.084-1.973,2.084-3.742
			c0-1.641-0.743-2.999-2.226-4.073c-1.484-1.073-3.931-2.24-7.341-3.505c-2.084-0.758-3.995-1.563-5.731-2.415
			c-1.737-0.853-3.237-1.848-4.499-2.984c-1.264-1.136-2.259-2.51-2.984-4.12c-0.726-1.611-1.089-3.583-1.089-5.92
			c0-4.547,1.673-8.13,5.021-10.752c3.346-2.619,7.893-3.931,13.64-3.931c2.903,0,5.683,0.27,8.335,0.805
			c2.652,0.537,4.642,1.059,5.967,1.563l-2.084,9.283c-1.263-0.569-2.874-1.089-4.831-1.563c-1.958-0.473-4.232-0.71-6.82-0.71
			c-2.337,0-4.232,0.395-5.683,1.185c-1.454,0.79-2.179,2.005-2.179,3.646c0,0.821,0.143,1.549,0.427,2.179
			c0.283,0.632,0.772,1.216,1.468,1.752c0.694,0.537,1.61,1.074,2.747,1.61c1.136,0.538,2.525,1.09,4.168,1.658
			c2.715,1.011,5.021,2.006,6.915,2.984c1.895,0.98,3.457,2.084,4.689,3.316c1.232,1.231,2.131,2.637,2.7,4.215
			c0.569,1.579,0.852,3.474,0.852,5.684c0,4.735-1.752,8.321-5.257,10.751c-3.505,2.43-8.51,3.647-15.014,3.647
			c-4.358,0-7.862-0.365-10.514-1.09c-2.652-0.725-4.516-1.31-5.589-1.752l1.989-9.567c1.705,0.696,3.742,1.359,6.11,1.989
			C1044.848,112.014,1047.548,112.329,1050.578,112.329z"/>
		<path fill="#FFFFFF" d="M1098.395,56.537c0,2.148-0.697,3.853-2.084,5.115c-1.39,1.264-3.031,1.895-4.926,1.895
			c-1.958,0-3.632-0.631-5.021-1.895c-1.389-1.262-2.084-2.967-2.084-5.115c0-2.21,0.695-3.945,2.084-5.21
			c1.388-1.262,3.063-1.895,5.021-1.895c1.895,0,3.536,0.633,4.926,1.895C1097.698,52.591,1098.395,54.327,1098.395,56.537z
			 M1097.163,120.57h-11.461V71.029h11.461V120.57z"/>
		<path fill="#FFFFFF" d="M1115.841,120.57V48.959l11.462-1.894v24.533c1.262-0.441,2.73-0.82,4.405-1.136
			c1.672-0.316,3.33-0.474,4.973-0.474c3.979,0,7.278,0.554,9.899,1.658c2.62,1.106,4.72,2.652,6.299,4.642
			c1.578,1.989,2.7,4.373,3.363,7.152c0.663,2.779,0.995,5.873,0.995,9.283v27.848h-11.461V94.521c0-2.652-0.175-4.91-0.521-6.773
			c-0.347-1.862-0.916-3.378-1.705-4.546c-0.79-1.168-1.847-2.02-3.173-2.557c-1.326-0.536-2.969-0.806-4.926-0.806
			c-1.515,0-3.064,0.158-4.641,0.474c-1.579,0.317-2.747,0.6-3.505,0.852v39.405H1115.841z"/>
		<path fill="#FFFFFF" d="M1220.234,95.753c0,3.916-0.569,7.482-1.705,10.704c-1.136,3.22-2.747,5.967-4.831,8.241
			c-2.084,2.273-4.594,4.042-7.531,5.304c-2.937,1.262-6.174,1.895-9.709,1.895c-3.538,0-6.758-0.633-9.663-1.895
			c-2.905-1.262-5.399-3.031-7.482-5.304c-2.084-2.274-3.711-5.021-4.879-8.241c-1.169-3.221-1.752-6.788-1.752-10.704
			c0-3.915,0.583-7.468,1.752-10.656c1.168-3.189,2.81-5.921,4.926-8.194c2.114-2.274,4.625-4.026,7.531-5.258
			c2.903-1.231,6.093-1.847,9.567-1.847c3.472,0,6.677,0.616,9.614,1.847c2.936,1.232,5.447,2.984,7.531,5.258
			c2.084,2.273,3.708,5.005,4.878,8.194C1219.649,88.285,1220.234,91.838,1220.234,95.753z M1208.488,95.753
			c0-4.926-1.059-8.824-3.174-11.699c-2.116-2.872-5.067-4.309-8.856-4.309c-3.789,0-6.742,1.437-8.857,4.309
			c-2.116,2.875-3.173,6.773-3.173,11.699c0,4.989,1.057,8.936,3.173,11.84c2.114,2.905,5.068,4.358,8.857,4.358
			c3.789,0,6.74-1.452,8.856-4.358C1207.43,104.689,1208.488,100.742,1208.488,95.753z"/>
		<path fill="#FFFFFF" d="M1253.576,121.517c-3.41-0.064-6.238-0.443-8.478-1.137c-2.242-0.694-4.026-1.688-5.352-2.983
			c-1.326-1.294-2.258-2.904-2.794-4.831c-0.537-1.925-0.805-4.12-0.805-6.584V48.959l11.461-1.894v56.739
			c0,1.39,0.109,2.558,0.332,3.505c0.22,0.947,0.616,1.752,1.185,2.415c0.568,0.663,1.34,1.17,2.32,1.516
			c0.979,0.347,2.227,0.616,3.742,0.805L1253.576,121.517z"/>
		<path fill="#FFFFFF" d="M1313.355,95.753c0,3.916-0.569,7.482-1.705,10.704c-1.136,3.22-2.747,5.967-4.831,8.241
			c-2.084,2.273-4.594,4.042-7.531,5.304c-2.937,1.262-6.174,1.895-9.709,1.895c-3.538,0-6.758-0.633-9.662-1.895
			c-2.905-1.262-5.399-3.031-7.482-5.304c-2.084-2.274-3.711-5.021-4.879-8.241c-1.169-3.221-1.752-6.788-1.752-10.704
			c0-3.915,0.583-7.468,1.752-10.656c1.168-3.189,2.81-5.921,4.926-8.194c2.114-2.274,4.625-4.026,7.531-5.258
			c2.904-1.231,6.093-1.847,9.567-1.847c3.472,0,6.678,0.616,9.614,1.847c2.936,1.232,5.447,2.984,7.531,5.258
			c2.084,2.273,3.708,5.005,4.878,8.194C1312.771,88.285,1313.355,91.838,1313.355,95.753z M1301.61,95.753
			c0-4.926-1.059-8.824-3.174-11.699c-2.116-2.872-5.067-4.309-8.856-4.309c-3.789,0-6.742,1.437-8.857,4.309
			c-2.116,2.875-3.173,6.773-3.173,11.699c0,4.989,1.057,8.936,3.173,11.84c2.114,2.905,5.068,4.358,8.857,4.358
			c3.789,0,6.74-1.452,8.856-4.358C1300.551,104.689,1301.61,100.742,1301.61,95.753z"/>
		<path fill="#FFFFFF" d="M1370.596,115.549c0,7.894-2.006,13.672-6.015,17.335c-4.011,3.662-10.151,5.494-18.424,5.494
			c-3.03,0-5.984-0.253-8.856-0.758c-2.875-0.507-5.48-1.17-7.815-1.989l2.084-9.757c1.956,0.821,4.182,1.484,6.677,1.989
			c2.494,0.505,5.194,0.758,8.099,0.758c4.609,0,7.893-0.947,9.851-2.841c1.956-1.894,2.936-4.705,2.936-8.43v-1.895
			c-1.136,0.569-2.638,1.136-4.499,1.705c-1.863,0.569-3.995,0.853-6.394,0.853c-3.158,0-6.047-0.505-8.667-1.516
			c-2.621-1.009-4.863-2.494-6.725-4.452c-1.864-1.957-3.316-4.405-4.358-7.341c-1.042-2.937-1.563-6.33-1.563-10.183
			c0-3.599,0.552-6.915,1.658-9.946c1.104-3.031,2.715-5.62,4.831-7.768c2.115-2.146,4.689-3.819,7.72-5.02
			c3.031-1.199,6.472-1.8,10.325-1.8c3.725,0,7.261,0.284,10.609,0.853c3.346,0.569,6.188,1.169,8.525,1.8V115.549z
			 M1338.674,94.521c0,4.863,1.057,8.416,3.173,10.656c2.114,2.242,4.846,3.363,8.194,3.363c1.831,0,3.552-0.252,5.162-0.758
			c1.61-0.505,2.92-1.104,3.931-1.8V80.313c-0.822-0.19-1.832-0.363-3.031-0.521c-1.2-0.157-2.716-0.237-4.547-0.237
			c-4.168,0-7.357,1.373-9.567,4.12C1339.778,86.422,1338.674,90.037,1338.674,94.521z"/>
		<path fill="#FFFFFF" d="M1405.889,69.798c3.789,0,6.978,0.473,9.567,1.421c2.589,0.947,4.657,2.274,6.204,3.979
			c1.547,1.705,2.652,3.774,3.316,6.204c0.663,2.431,0.995,5.1,0.995,8.004v30.028c-1.769,0.379-4.437,0.837-8.004,1.373
			c-3.568,0.535-7.594,0.805-12.078,0.805c-2.968,0-5.683-0.284-8.146-0.852c-2.464-0.569-4.563-1.484-6.3-2.747
			c-1.737-1.263-3.094-2.904-4.073-4.926c-0.98-2.02-1.468-4.514-1.468-7.483c0-2.841,0.552-5.24,1.658-7.199
			c1.104-1.956,2.604-3.552,4.499-4.784c1.895-1.231,4.088-2.114,6.583-2.652c2.494-0.536,5.099-0.806,7.815-0.806
			c1.262,0,2.589,0.081,3.979,0.237c1.388,0.158,2.872,0.426,4.452,0.805v-1.894c0-1.326-0.158-2.589-0.474-3.789
			c-0.317-1.199-0.869-2.257-1.658-3.174c-0.79-0.914-1.832-1.624-3.126-2.131c-1.295-0.505-2.921-0.758-4.878-0.758
			c-2.652,0-5.084,0.19-7.293,0.569c-2.212,0.379-4.011,0.821-5.4,1.326l-1.421-9.283c1.452-0.505,3.567-1.01,6.346-1.516
			C1399.763,70.051,1402.731,69.798,1405.889,69.798z M1406.836,112.519c3.536,0,6.219-0.19,8.052-0.569V99.257
			c-0.633-0.19-1.549-0.379-2.747-0.569c-1.2-0.189-2.527-0.284-3.979-0.284c-1.264,0-2.542,0.095-3.836,0.284
			c-1.296,0.19-2.463,0.537-3.505,1.042c-1.042,0.507-1.88,1.217-2.511,2.131c-0.632,0.917-0.948,2.07-0.948,3.458
			c0,2.715,0.853,4.594,2.558,5.636C1401.627,111.997,1403.931,112.519,1406.836,112.519z"/>
		<path fill="#FFFFFF" d="M498.066,204.53c-2.148-3.6-4.546-7.467-7.199-11.604c-2.652-4.135-5.399-8.303-8.241-12.503
			c-2.841-4.199-5.731-8.272-8.667-12.22c-2.937-3.945-5.731-7.498-8.384-10.656v46.983H453.83v-65.644h9.756
			c2.526,2.652,5.241,5.795,8.146,9.425c2.904,3.632,5.826,7.405,8.762,11.319c2.936,3.916,5.778,7.847,8.525,11.793
			c2.747,3.947,5.193,7.626,7.341,11.036v-43.574h11.841v65.644H498.066z"/>
		<path fill="#FFFFFF" d="M572.802,179.713c0,3.916-0.569,7.482-1.705,10.704c-1.136,3.22-2.747,5.967-4.831,8.241
			c-2.084,2.273-4.594,4.042-7.531,5.304s-6.174,1.895-9.709,1.895c-3.538,0-6.758-0.633-9.662-1.895
			c-2.905-1.262-5.399-3.031-7.482-5.304c-2.084-2.274-3.711-5.021-4.879-8.241c-1.169-3.221-1.752-6.788-1.752-10.704
			c0-3.915,0.583-7.468,1.752-10.656c1.168-3.189,2.81-5.921,4.926-8.194c2.114-2.274,4.625-4.026,7.531-5.258
			c2.903-1.231,6.093-1.847,9.567-1.847c3.472,0,6.678,0.616,9.614,1.847c2.936,1.232,5.447,2.984,7.531,5.258
			c2.084,2.273,3.708,5.005,4.878,8.194C572.217,172.246,572.802,175.798,572.802,179.713z M561.056,179.713
			c0-4.926-1.059-8.824-3.174-11.699c-2.116-2.872-5.067-4.309-8.856-4.309c-3.789,0-6.742,1.437-8.857,4.309
			c-2.116,2.875-3.173,6.773-3.173,11.699c0,4.989,1.057,8.936,3.173,11.84c2.114,2.905,5.068,4.358,8.857,4.358
			c3.789,0,6.74-1.452,8.856-4.358C559.997,188.65,561.056,184.702,561.056,179.713z"/>
		<path fill="#FFFFFF" d="M600.827,204.53c-3.17-6.503-6.421-13.972-9.75-22.402c-3.33-8.431-6.357-17.476-9.083-27.139h12.223
			c0.697,2.78,1.505,5.763,2.425,8.952c0.919,3.189,1.901,6.378,2.948,9.566c1.047,3.19,2.124,6.285,3.234,9.284
			c1.11,3,2.14,5.7,3.091,8.098c0.95-2.399,1.966-5.098,3.043-8.098c1.077-2.999,2.14-6.094,3.187-9.284
			c1.045-3.188,2.044-6.377,2.995-9.566c0.95-3.189,1.775-6.172,2.473-8.952h11.844c-2.726,9.663-5.754,18.708-9.083,27.139
			c-3.33,8.43-6.579,15.898-9.75,22.402H600.827z"/>
		<path fill="#FFFFFF" d="M655.503,140.497c0,2.148-0.696,3.853-2.084,5.115c-1.39,1.264-3.031,1.895-4.926,1.895
			c-1.958,0-3.632-0.631-5.021-1.895c-1.389-1.262-2.084-2.967-2.084-5.115c0-2.21,0.695-3.945,2.084-5.21
			c1.388-1.262,3.063-1.895,5.021-1.895c1.895,0,3.536,0.633,4.926,1.895C654.807,136.552,655.503,138.287,655.503,140.497z
			 M654.271,204.53H642.81V154.99h11.461V204.53z"/>
		<path fill="#FFFFFF" d="M721.426,138.224c9.535,0,16.845,1.737,21.928,5.21c5.083,3.473,7.625,8.904,7.625,16.292
			c0,3.853-0.679,7.152-2.037,9.899c-1.359,2.747-3.331,4.989-5.92,6.726c-2.59,1.737-5.747,3.016-9.473,3.836
			c-3.726,0.822-7.989,1.232-12.787,1.232h-5.967v23.112h-11.935v-64.696c2.778-0.631,5.856-1.057,9.236-1.278
			C715.474,138.335,718.585,138.224,721.426,138.224z M722.279,148.549c-3.031,0-5.527,0.094-7.483,0.284v22.354h5.778
			c5.745,0,10.166-0.806,13.261-2.415c3.093-1.611,4.642-4.657,4.642-9.141c0-2.146-0.411-3.945-1.232-5.399
			c-0.821-1.451-1.958-2.589-3.41-3.41c-1.453-0.82-3.173-1.404-5.162-1.752C726.683,148.723,724.552,148.549,722.279,148.549z"/>
		<path fill="#FFFFFF" d="M781.252,153.759c3.789,0,6.978,0.473,9.567,1.421c2.589,0.947,4.657,2.274,6.204,3.979
			c1.547,1.705,2.652,3.774,3.316,6.204c0.663,2.431,0.995,5.1,0.995,8.004v30.028c-1.769,0.379-4.437,0.837-8.004,1.373
			c-3.568,0.535-7.594,0.805-12.078,0.805c-2.968,0-5.683-0.284-8.146-0.852c-2.464-0.569-4.563-1.484-6.3-2.747
			c-1.737-1.263-3.094-2.904-4.073-4.926c-0.98-2.02-1.468-4.514-1.468-7.483c0-2.841,0.552-5.24,1.658-7.199
			c1.104-1.956,2.604-3.552,4.499-4.784c1.895-1.231,4.088-2.114,6.583-2.652c2.494-0.536,5.099-0.806,7.815-0.806
			c1.262,0,2.589,0.081,3.979,0.237c1.388,0.158,2.872,0.426,4.452,0.805v-1.894c0-1.326-0.158-2.589-0.474-3.789
			c-0.317-1.199-0.869-2.257-1.658-3.174c-0.79-0.914-1.832-1.624-3.126-2.131c-1.295-0.505-2.921-0.758-4.878-0.758
			c-2.652,0-5.084,0.19-7.293,0.569c-2.212,0.379-4.011,0.822-5.399,1.326l-1.421-9.283c1.452-0.505,3.567-1.009,6.346-1.516
			C775.126,154.012,778.094,153.759,781.252,153.759z M782.2,196.479c3.536,0,6.219-0.19,8.052-0.569v-12.693
			c-0.633-0.19-1.549-0.379-2.747-0.569c-1.2-0.189-2.527-0.284-3.979-0.284c-1.264,0-2.542,0.095-3.836,0.284
			c-1.296,0.19-2.463,0.537-3.505,1.042c-1.042,0.507-1.88,1.217-2.511,2.131c-0.632,0.917-0.948,2.07-0.948,3.458
			c0,2.715,0.853,4.594,2.558,5.636C776.99,195.958,779.294,196.479,782.2,196.479z"/>
		<path fill="#FFFFFF" d="M854.151,163.042c-1.263,1.326-2.921,3.19-4.973,5.588c-2.053,2.401-4.248,5.068-6.585,8.005
			c-2.337,2.936-4.689,6-7.056,9.187c-2.368,3.19-4.5,6.238-6.394,9.141h25.577v9.567h-39.405v-7.104
			c1.388-2.525,3.126-5.272,5.21-8.241c2.084-2.967,4.231-5.951,6.441-8.951c2.21-2.999,4.405-5.856,6.583-8.572
			c2.179-2.715,4.12-5.083,5.826-7.105h-22.828v-9.567h37.604V163.042z"/>
		<path fill="#FFFFFF" d="M887.294,153.759c3.789,0,6.978,0.473,9.567,1.421c2.589,0.947,4.657,2.274,6.204,3.979
			c1.547,1.705,2.653,3.774,3.316,6.204c0.663,2.431,0.995,5.1,0.995,8.004v30.028c-1.769,0.379-4.437,0.837-8.004,1.373
			c-3.568,0.535-7.594,0.805-12.078,0.805c-2.968,0-5.683-0.284-8.146-0.852c-2.464-0.569-4.563-1.484-6.3-2.747
			c-1.737-1.263-3.094-2.904-4.073-4.926c-0.98-2.02-1.468-4.514-1.468-7.483c0-2.841,0.552-5.24,1.658-7.199
			c1.104-1.956,2.604-3.552,4.499-4.784c1.895-1.231,4.088-2.114,6.583-2.652c2.494-0.536,5.099-0.806,7.815-0.806
			c1.262,0,2.589,0.081,3.979,0.237c1.388,0.158,2.872,0.426,4.452,0.805v-1.894c0-1.326-0.158-2.589-0.474-3.789
			c-0.317-1.199-0.869-2.257-1.658-3.174c-0.79-0.914-1.832-1.624-3.126-2.131c-1.295-0.505-2.921-0.758-4.878-0.758
			c-2.653,0-5.084,0.19-7.293,0.569c-2.212,0.379-4.011,0.822-5.399,1.326l-1.421-9.283c1.452-0.505,3.567-1.009,6.346-1.516
			C881.169,154.012,884.136,153.759,887.294,153.759z M888.242,196.479c3.536,0,6.219-0.19,8.052-0.569v-12.693
			c-0.633-0.19-1.549-0.379-2.747-0.569c-1.2-0.189-2.527-0.284-3.979-0.284c-1.264,0-2.542,0.095-3.836,0.284
			c-1.296,0.19-2.463,0.537-3.505,1.042c-1.042,0.507-1.88,1.217-2.511,2.131c-0.632,0.917-0.947,2.07-0.947,3.458
			c0,2.715,0.853,4.594,2.558,5.636C883.032,195.958,885.337,196.479,888.242,196.479z"/>
		<path fill="#FFFFFF" d="M953.847,165.315c-0.947-0.316-2.259-0.647-3.932-0.995c-1.674-0.346-3.616-0.521-5.825-0.521
			c-1.264,0-2.604,0.128-4.026,0.379c-1.421,0.254-2.415,0.474-2.983,0.663v39.689h-11.462v-47.173
			c2.21-0.82,4.973-1.594,8.288-2.32c3.316-0.725,6.993-1.09,11.036-1.09c0.758,0,1.641,0.048,2.652,0.143
			c1.01,0.094,2.021,0.222,3.031,0.379c1.01,0.158,1.989,0.347,2.937,0.569c0.947,0.221,1.705,0.426,2.273,0.615L953.847,165.315z"
			/>
	</g>
</g>
</svg>
