<?xml version="1.0" encoding="utf-8"?>
<!-- Generator: Adobe Illustrator 17.0.0, SVG Export Plug-In . SVG Version: 6.00 Build 0)  -->
<!DOCTYPE svg PUBLIC "-//W3C//DTD SVG 1.1//EN" "http://www.w3.org/Graphics/SVG/1.1/DTD/svg11.dtd">
<svg version="1.1" id="Layer_1" xmlns="http://www.w3.org/2000/svg" xmlns:xlink="http://www.w3.org/1999/xlink" x="0px" y="0px"
	 width="118.469px" height="147.964px" viewBox="0 0 118.469 147.964" enable-background="new 0 0 118.469 147.964"
	 xml:space="preserve">
<g>
	<g>
		<path fill="#341515" d="M56,93.964H7v-49h49V93.964z M12,88.964h39v-39H12V88.964z"/>
	</g>
	<g>
		<path fill="#341515" d="M111,93.964H62v-49h49V93.964z M67,88.964h39v-39H67V88.964z"/>
	</g>
	<g>
		<path fill="#341515" d="M56,147.964H7v-50h49V147.964z M12,142.964h39v-39H12V142.964z"/>
	</g>
	<g>
		<path fill="#341515" d="M111,147.964H62v-50h49V147.964z M67,142.964h39v-39H67V142.964z"/>
	</g>
	<path fill="#341515" d="M83.873,5.748C67.948,19.936,61.879,32.964,60.07,37.964h-1.295c-1.821-5-7.929-18.028-23.956-32.216
		C13.377-13.233-11.708,19.452,5.995,31.051c11.895,7.793,28.095,9.612,39.529,9.668l0.832,0.245h26.757l-0.523-0.246
		c11.391,0.004,27.878-1.66,39.922-9.601C130.102,19.518,105.178-13.233,83.873,5.748z M7.752,12.766
		c2.812-15.278,47.63,25.309,47.63,25.309S4.94,28.044,7.752,12.766z M63.441,38.075c0,0,44.531-40.587,47.325-25.309
		C113.56,28.044,63.441,38.075,63.441,38.075z"/>
</g>
</svg>
