<?xml version="1.0" encoding="utf-8"?>
<!-- Generator: Adobe Illustrator 21.1.0, SVG Export Plug-In . SVG Version: 6.00 Build 0)  -->
<svg version="1.1" id="Layer_1" xmlns="http://www.w3.org/2000/svg" xmlns:xlink="http://www.w3.org/1999/xlink" x="0px" y="0px"
	 viewBox="0 0 25 25" style="enable-background:new 0 0 25 25;" xml:space="preserve">
<style type="text/css">
	.st0{fill:#4C1B1B;}
	.st1{fill:#EFEBE3;}
</style>
<polygon class="st0" points="25,25 5.5,25 0,0 19.5,0 "/>
<g>
	<g>
		<path class="st1" d="M12.5,8.2c1.4,0,1.6,0,2.1,0c0.5,0,0.8,0.1,1,0.2c0.2,0.1,0.4,0.2,0.6,0.4c0.2,0.2,0.3,0.4,0.4,0.6
			c0.1,0.2,0.2,0.5,0.2,1c0,0.6,0,0.7,0,2.1c0,1.4,0,1.6,0,2.1c0,0.5-0.1,0.8-0.2,1c-0.1,0.2-0.2,0.4-0.4,0.6
			c-0.2,0.2-0.4,0.3-0.6,0.4c-0.2,0.1-0.5,0.2-1,0.2c-0.6,0-0.7,0-2.1,0c-1.4,0-1.6,0-2.1,0c-0.5,0-0.8-0.1-1-0.2
			c-0.2-0.1-0.4-0.2-0.6-0.4c-0.2-0.2-0.3-0.4-0.4-0.6c-0.1-0.2-0.2-0.5-0.2-1c0-0.6,0-0.7,0-2.1c0-1.4,0-1.6,0-2.1
			c0-0.5,0.1-0.8,0.2-1C8.5,9.1,8.6,9,8.8,8.8C9,8.6,9.1,8.5,9.4,8.4c0.2-0.1,0.5-0.2,1-0.2C10.9,8.2,11.1,8.2,12.5,8.2 M12.5,7.2
			c-1.4,0-1.6,0-2.2,0C9.8,7.3,9.4,7.4,9,7.5C8.7,7.6,8.4,7.8,8.1,8.1C7.8,8.4,7.6,8.7,7.5,9c-0.1,0.3-0.2,0.7-0.2,1.3
			c0,0.6,0,0.7,0,2.2c0,1.4,0,1.6,0,2.2c0,0.6,0.1,0.9,0.2,1.3c0.1,0.3,0.3,0.6,0.6,0.9c0.3,0.3,0.6,0.5,0.9,0.6
			c0.3,0.1,0.7,0.2,1.3,0.2c0.6,0,0.7,0,2.2,0c1.4,0,1.6,0,2.2,0c0.6,0,0.9-0.1,1.3-0.2c0.3-0.1,0.6-0.3,0.9-0.6
			c0.3-0.3,0.5-0.6,0.6-0.9c0.1-0.3,0.2-0.7,0.2-1.3c0-0.6,0-0.7,0-2.2c0-1.4,0-1.6,0-2.2c0-0.6-0.1-0.9-0.2-1.3
			c-0.1-0.3-0.3-0.6-0.6-0.9c-0.3-0.3-0.6-0.5-0.9-0.6c-0.3-0.1-0.7-0.2-1.3-0.2C14.1,7.2,13.9,7.2,12.5,7.2"/>
		<path class="st1" d="M12.5,9.8c-1.5,0-2.7,1.2-2.7,2.7c0,1.5,1.2,2.7,2.7,2.7s2.7-1.2,2.7-2.7C15.2,11,14,9.8,12.5,9.8 M12.5,14.3
			c-1,0-1.8-0.8-1.8-1.8s0.8-1.8,1.8-1.8s1.8,0.8,1.8,1.8S13.5,14.3,12.5,14.3"/>
		<path class="st1" d="M16,9.7c0,0.4-0.3,0.6-0.6,0.6c-0.4,0-0.6-0.3-0.6-0.6C14.7,9.3,15,9,15.3,9C15.7,9,16,9.3,16,9.7"/>
	</g>
</g>
</svg>
